<?xml version="1.0" encoding="UTF-8"?>
<svg version="1.1" xmlns="http://www.w3.org/2000/svg" width="934" height="930">
<path d="M0 0 C0 0.66 0 1.32 0 2 C0.84175781 2.01417969 1.68351562 2.02835937 2.55078125 2.04296875 C76.34920329 4.87842214 152.97340792 42.90618873 206.6796875 91.8984375 C208.69397731 93.72282794 210.74148614 95.49093802 212.8125 97.25 C221.4946631 104.8204227 229.58982051 113.18921515 237 122 C238.17369141 123.33998047 238.17369141 123.33998047 239.37109375 124.70703125 C256.71240566 144.61349267 271.45714244 166.71394583 283.90185547 189.96826172 C284.90085634 191.81656881 285.93491421 193.64581928 286.97265625 195.47265625 C297.44978513 214.21101201 305.43444089 234.59088057 312 255 C312.25442871 255.77085937 312.50885742 256.54171875 312.77099609 257.3359375 C319.97382157 279.2769922 324.53731279 302.05466221 327 325 C327.10296387 325.91088379 327.20592773 326.82176758 327.31201172 327.76025391 C334.63876954 394.65019615 323.5342005 461.7351546 296 523 C295.68095703 523.72316406 295.36191406 524.44632813 295.03320312 525.19140625 C287.34818977 542.57610877 278.01484985 559.50006159 267 575 C266.19110523 576.15734175 265.38253019 577.31490701 264.57421875 578.47265625 C259.62293594 585.52202034 254.44717466 592.32388959 249 599 C248.36578125 599.80824219 247.7315625 600.61648438 247.078125 601.44921875 C242.72684655 606.99274749 238.13551576 612.24048593 233.359375 617.421875 C231.42129773 619.53964156 229.54458501 621.68694934 227.6875 623.875 C220.15518497 632.53180755 211.80903038 640.65360108 203 648 C202.11054687 648.75539063 201.22109375 649.51078125 200.3046875 650.2890625 C193.0362078 656.41887698 185.59114527 662.27584052 178 668 C177.14277344 668.65484375 176.28554688 669.3096875 175.40234375 669.984375 C157.10905278 683.6690007 137.03030717 694.71764448 116.5 704.625 C115.39446777 705.15867187 114.28893555 705.69234375 113.14990234 706.2421875 C111.60616943 706.97695312 111.60616943 706.97695312 110.03125 707.7265625 C109.10892578 708.16564941 108.18660156 708.60473633 107.23632812 709.05712891 C105 710 105 710 103 710 C102.67 710.66 102.34 711.32 102 712 C99.98223683 712.72499716 97.95744917 713.43307449 95.91210938 714.07617188 C92.55900523 715.13989975 89.24344038 716.29468321 85.921875 717.453125 C68.69082772 723.39483303 51.5568836 728.36572488 33.76464844 732.35595703 C30.46859699 733.12379381 27.2382999 734.01912365 24 735 C24 735.33 24 735.66 24 736 C23.06994141 735.96519531 23.06994141 735.96519531 22.12109375 735.9296875 C15.33363327 735.79136953 8.87169933 736.44279976 2.1640625 737.46484375 C-79.91314015 748.63856824 -169.97538672 728.00059076 -239.25732422 682.94458008 C-242.37154812 680.72850887 -242.37154812 680.72850887 -246 680 C-247.33786587 678.67121467 -248.67009865 677.33675651 -250 676 C-252.10708915 674.44053164 -254.22034126 672.92729945 -256.375 671.4375 C-271.58625163 660.7227941 -286.42568009 649.02084819 -299.375 635.625 C-301.16919795 633.7763047 -301.16919795 633.7763047 -304.0625 631.5 C-307.18595339 628.8417418 -309.73792925 625.98192255 -312.38671875 622.86328125 C-314.07706634 620.85785564 -314.07706634 620.85785564 -316.4375 618.625 C-318 617 -318 617 -318 615 C-318.66 615 -319.32 615 -320 615 C-322.70410012 612.13163212 -325.07872159 608.97998464 -327.51660156 605.88378906 C-328.56716342 604.54966542 -329.62159099 603.21858166 -330.67871094 601.88964844 C-343.63315184 585.59899535 -343.63315184 585.59899535 -348.66796875 576.87109375 C-349.94250444 574.69169291 -349.94250444 574.69169291 -353 574 C-353.13728516 572.94619141 -353.13728516 572.94619141 -353.27734375 571.87109375 C-354.1472435 568.41500554 -355.63256246 566.05749114 -357.5625 563.0625 C-358.29472002 561.90475157 -359.0251331 560.74585874 -359.75390625 559.5859375 C-360.12789551 558.99264648 -360.50188477 558.39935547 -360.88720703 557.78808594 C-365.78740118 549.91423295 -370.20076551 541.77679599 -374.375 533.5 C-374.70886719 532.84153076 -375.04273438 532.18306152 -375.38671875 531.50463867 C-377.25406582 527.74545001 -378.77356871 524.01377514 -380 520 C-380.99 520 -381.98 520 -383 520 C-382.67 519.01 -382.34 518.02 -382 517 C-382.66298888 514.66089199 -382.66298888 514.66089199 -383.80859375 512.1171875 C-384.22214111 511.12734863 -384.63568848 510.13750977 -385.06176758 509.11767578 C-385.74275513 507.51255127 -385.74275513 507.51255127 -386.4375 505.875 C-394.1929798 487.045925 -400.10291124 467.7531609 -405 448 C-405.66 448 -406.32 448 -407 448 C-406.69642578 446.87464844 -406.69642578 446.87464844 -406.38671875 445.7265625 C-405.83583232 440.41802051 -406.87359431 435.6016937 -407.8125 430.375 C-410.75798055 412.98997336 -412.41605384 395.62143399 -413 378 C-413.02336426 377.31921387 -413.04672852 376.63842773 -413.07080078 375.93701172 C-415.48493913 292.69995581 -387.69917505 207.42706221 -336.41162109 141.81298828 C-335.02480156 140.0318534 -333.66081635 138.23523091 -332.30078125 136.43359375 C-325.4326541 127.40834732 -317.89889156 119.13019146 -310 111 C-309.27264648 110.25073242 -308.54529297 109.50146484 -307.79589844 108.72949219 C-292.2745597 92.81337586 -292.2745597 92.81337586 -283.625 86.0625 C-281.12719316 84.09993748 -278.72811899 82.06038711 -276.32885742 79.98046875 C-265.3506724 70.49641422 -253.54525974 62.56413735 -241.22021484 54.93383789 C-240.05159912 54.20861938 -240.05159912 54.20861938 -238.859375 53.46875 C-237.81475098 52.82583008 -237.81475098 52.82583008 -236.74902344 52.16992188 C-234.85615843 50.98589263 -234.85615843 50.98589263 -233 49 C-232.01 48.67 -231.02 48.34 -230 48 C-228.2617713 47.10965702 -226.53702197 46.19287837 -224.8203125 45.26171875 C-185.99686286 24.47831276 -145.04680066 10.11060121 -101.41943359 3.59692383 C-100.21625488 3.41411865 -99.01307617 3.23131348 -97.7734375 3.04296875 C-96.70528809 2.88852295 -95.63713867 2.73407715 -94.53662109 2.57495117 C-91.84678377 2.20232116 -91.84678377 2.20232116 -90 0 C-87.50684837 -0.12435428 -85.11409819 -0.13410458 -82.625 -0.0625 C-76.11941582 0.03781097 -69.68218958 -0.11810945 -63.1875 -0.5 C-42.12327022 -1.65538797 -21.06570438 -0.71306309 0 0 Z M-108 47 C-109.35115107 47.13787256 -110.7066454 47.23327644 -112.0625 47.3125 C-119.56248621 47.96752063 -126.74845917 50.06565598 -134 52 C-134 52.99 -134 53.98 -134 55 C-134.495 54.01 -134.495 54.01 -135 53 C-143.59632281 54.34982541 -151.65082618 57.07308139 -159.8125 60 C-160.49463562 60.24332062 -161.17677124 60.48664124 -161.87957764 60.73733521 C-183.16160256 68.36433129 -206.96360166 77.79189807 -224 93 C-215.93774605 98.37483596 -204.42920572 98.9864794 -195 98 C-190.47265991 96.5123534 -188.54659566 95.10741236 -186 91 C-185.37085756 89.0077156 -184.76927422 87.00662805 -184.1875 85 C-182.68457485 80.31913389 -181.56286749 77.45357589 -177.26171875 74.953125 C-168.19333761 71.13156196 -159.13928674 68.86549602 -149.3125 68.75 C-148.29833008 68.7190625 -148.29833008 68.7190625 -147.26367188 68.6875 C-145.30078125 68.671875 -145.30078125 68.671875 -142 69 C-141.01 70.485 -141.01 70.485 -140 72 C-142.32303153 74.4123789 -144.4516482 76.30399398 -147.25 78.1875 C-150.14815894 81.15152618 -150.45746146 81.61439465 -150.625 85.5 C-150.34303178 89.72952337 -149.13609842 92.04837796 -146 95 C-142.30661206 96.84669397 -137.38913846 95.8565587 -133.296875 95.609375 C-127.61403263 95.45206448 -127.61403263 95.45206448 -124.49609375 98.234375 C-122.29126936 102.31013392 -122.09201858 105.48485602 -123 110 C-126.68556828 115.46480814 -133.25223042 118.0707514 -139 121 C-139 121.66 -139 122.32 -139 123 C-138.09378906 123.14695312 -137.18757813 123.29390625 -136.25390625 123.4453125 C-127.23191893 125.10650382 -120.54291128 127.45708872 -114 134 C-109.17881102 133.91446772 -109.17881102 133.91446772 -105.37109375 131.30078125 C-103.31660481 127.85322004 -102.70843802 124.24923038 -101.84375 120.36328125 C-101.5653125 119.58339844 -101.286875 118.80351562 -101 118 C-98 117 -98 117 -95.75 117.9375 C-92.37981859 119.23961555 -89.58214661 119.14047634 -86 119 C-86.22498058 109.10085433 -92.71383694 101.00132067 -99.25 94.0625 C-106.48188959 87.18676366 -114.35512621 84.16121845 -123.90625 81.7734375 C-126.2950542 80.8910061 -127.43185406 79.99315746 -129 78 C-129.5625 75.125 -129.5625 75.125 -129 72 C-122.89061869 65.43241509 -114.8282199 63.58245828 -106.1875 62.6875 C-105.39923828 62.60483887 -104.61097656 62.52217773 -103.79882812 62.43701172 C-89.30303741 61.13191489 -77.29088131 66.10843097 -66 75 C-61.28799233 79.18845126 -55.9805429 84.52385618 -55 91 C-55.06070532 93.31508015 -55.19267037 95.62881268 -55.375 97.9375 C-55.46523438 99.14277344 -55.55546875 100.34804687 -55.6484375 101.58984375 C-56 105 -56 105 -56.51953125 107.45703125 C-58.09015547 115.76984725 -58.2853115 125.69198579 -54.203125 133.23828125 C-51.27078612 137.53206319 -47.74553225 140.8532116 -43 143 C-39.5 143.66666667 -39.5 143.66666667 -36 143 C-32.3237307 139.78181473 -29.72367541 136.30117083 -27.125 132.1875 C-17.31264692 117.23009287 -6.35664879 112.10483914 10.01318359 106.30493164 C26.01747318 100.64112597 26.01747318 100.64112597 39 90 C39.66 89.29875 40.32 88.5975 41 87.875 C47.61632774 78.36402888 51.3291849 66.5907736 51 55 C49.515 55.495 49.515 55.495 48 56 C48 54.68 48 53.36 48 52 C28.76536496 46.07417809 9.08766464 42.91929481 -10.94335938 41.17919922 C-12.78111633 41.01907177 -14.61727451 40.84083384 -16.453125 40.66015625 C-64.23680218 36.23826651 -64.23680218 36.23826651 -108 47 Z M-184.203125 105.95703125 C-191.86207934 110.08864535 -197.52187604 111.45606567 -206.1875 111.3125 C-207.66379883 111.31733398 -207.66379883 111.31733398 -209.16992188 111.32226562 C-217.02780617 111.2635051 -217.02780617 111.2635051 -221 109 C-222.92737375 108.1029149 -224.86591503 107.22959828 -226.8125 106.375 C-227.80894531 105.92898437 -228.80539062 105.48296875 -229.83203125 105.0234375 C-233.54385958 103.82430184 -236.11849536 103.54006534 -240 104 C-242.4706649 105.3527037 -244.43364231 106.60856757 -246.625 108.3125 C-247.22183594 108.75746826 -247.81867188 109.20243652 -248.43359375 109.66088867 C-253.80959376 113.72189078 -258.97266037 118.04500929 -264.0625 122.45703125 C-266.09485272 124.2164217 -268.13553744 125.94866022 -270.20703125 127.66015625 C-272.9709424 129.97565664 -275.48586407 132.41791445 -278 135 C-278.598125 135.556875 -279.19625 136.11375 -279.8125 136.6875 C-281.22363777 137.95218271 -281.22363777 137.95218271 -281 140 C-281.66 140 -282.32 140 -283 140 C-284.47098687 141.37624344 -284.47098687 141.37624344 -286 143.25 C-286.94359375 144.36375 -286.94359375 144.36375 -287.90625 145.5 C-288.5971875 146.325 -289.288125 147.15 -290 148 C-290.7115625 148.825 -291.423125 149.65 -292.15625 150.5 C-318.78848818 181.7484928 -362.09654813 237.96020433 -359 282 C-356.52976879 299.41722343 -352.01811727 321.83384923 -341 336 C-340.67 336 -340.34 336 -340 336 C-340 334.35 -340 332.7 -340 331 C-340.66 331 -341.32 331 -342 331 C-341.79375 329.906875 -341.5875 328.81375 -341.375 327.6875 C-340.92301411 324.15829508 -341.20861799 321.2887065 -341.9375 317.8125 C-343.25372927 311.5228675 -343.18315636 305.40029728 -343 299 C-339.87855264 301.82383435 -338.21924564 304.21296512 -336.703125 308.12890625 C-336.30561035 309.15145508 -335.9080957 310.17400391 -335.49853516 311.22753906 C-335.08651855 312.32807617 -334.67450195 313.42861328 -334.25 314.5625 C-333.81606934 315.70041992 -333.38213867 316.83833984 -332.93505859 318.01074219 C-329.35575004 327.59663115 -326.37601664 337.31880256 -323.68847656 347.18969727 C-321.16868668 356.24493567 -317.99972079 362.66181203 -310 368 C-300.34942831 373.1830376 -288.69977915 373.70666922 -278 375 C-277.74347656 375.94617188 -277.48695313 376.89234375 -277.22265625 377.8671875 C-276.30836533 380.97262145 -276.30836533 380.97262145 -274.37109375 382.3203125 C-273.73300781 382.58585937 -273.09492188 382.85140625 -272.4375 383.125 C-271.7259375 383.44210937 -271.014375 383.75921875 -270.28125 384.0859375 C-268.76750303 384.6924731 -267.24651847 385.28126537 -265.71875 385.8515625 C-260.47947573 387.91497531 -257.47332238 390.20359947 -253.94921875 394.58203125 C-251.55286288 397.55466509 -249.0119615 400.36921522 -246.4375 403.1875 C-245.99035645 403.68636719 -245.54321289 404.18523437 -245.08251953 404.69921875 C-241.55450254 408.57655712 -237.73817341 412.6309133 -233 415 C-230.26934611 415.03078032 -227.55326832 414.93292184 -224.82421875 414.83984375 C-221.75750047 415.0137517 -219.72880956 415.60775023 -217 417 C-214.00354248 420.45745098 -213.02550746 422.38665343 -212.953125 426.96484375 C-214.01026633 436.62849436 -218.17621006 443.25132224 -224.1640625 450.6875 C-227.55793513 454.96233531 -227.55659468 458.67644119 -227 464 C-226.01517978 466.00751815 -225.01847486 468.00934459 -224 470 C-224.75 472.1875 -224.75 472.1875 -226 474 C-227.37550653 478.12651959 -227.99091317 481.81821359 -226.12890625 485.91796875 C-223.86597782 489.63510692 -221.22458405 492.98864608 -218.5 496.375 C-214.19574197 501.81342537 -211.44846822 507.74510877 -208.640625 514.0546875 C-204.26314408 523.4921598 -199.48317005 528.26762009 -190.3125 533.0625 C-184.32812387 536.19559443 -181.15980682 538.86852157 -178.75 545.375 C-177.38588879 551.96820418 -176.85008782 558.41564947 -176.76635742 565.13745117 C-176.75312943 565.90777679 -176.73990143 566.67810242 -176.72627258 567.47177124 C-176.69790718 569.13094064 -176.6712456 570.79013989 -176.64613914 572.4493618 C-176.59050339 575.99733017 -176.52000193 579.5449585 -176.45055866 583.09267902 C-176.32192404 589.67888029 -176.19959592 596.26507639 -176.10131836 602.85180664 C-176.03210773 607.45206459 -175.94436178 612.05166158 -175.84493446 616.65136147 C-175.81072197 618.39050745 -175.78315169 620.12979883 -175.76274681 621.86916161 C-175.64987469 631.23859984 -175.14192703 639.44642444 -171.89633179 648.36531067 C-170.60132849 652.17186022 -170.49770752 655.48616528 -170.4375 659.5 C-170.32760512 666.0678349 -169.53593727 669.45005203 -164.87890625 674.1328125 C-161.0723101 676.60167676 -157.29314484 677.70786999 -152.9375 678.875 C-151.73383789 679.23078125 -151.73383789 679.23078125 -150.50585938 679.59375 C-149.34086914 679.91472656 -149.34086914 679.91472656 -148.15234375 680.2421875 C-147.1003479 680.53391846 -147.1003479 680.53391846 -146.02709961 680.83154297 C-143.42552941 681.04773994 -142.15845159 680.42529861 -140 679 C-138.895403 676.73295895 -138.895403 676.73295895 -139 674 C-140.34126843 670.73249119 -140.34126843 670.73249119 -142 668 C-141.195625 667.01 -140.39125 666.02 -139.5625 665 C-136.66786996 660.95409664 -136.08259744 657.95584623 -136 653 C-136.99 651.515 -136.99 651.515 -138 650 C-138.125 647.3125 -138.125 647.3125 -138 645 C-137.071875 644.835 -136.14375 644.67 -135.1875 644.5 C-131.95782161 643.37311378 -131.95782161 643.37311378 -131.0390625 641.15625 C-130.56280252 639.74283328 -130.12736023 638.31485691 -129.73828125 636.875 C-129 635 -129 635 -126 633 C-123.48715626 632.66858989 -121.00374268 632.55975267 -118.47265625 632.44140625 C-115.60328053 631.92917962 -114.1758127 630.8931085 -112 629 C-112.58245714 624.31088428 -112.58245714 624.31088428 -113.75 619.75 C-113.8325 619.1725 -113.915 618.595 -114 618 C-111.85247114 615.37894769 -110.75765227 614.92061023 -107.375 613.8125 C-97.4414745 610.21681801 -90.82623906 601.08776254 -85.953125 592.07568359 C-83.91692584 587.64131749 -82.77179793 582.88932785 -81.75878906 578.12939453 C-80.62165432 573.06633022 -79.23938158 570.31409573 -75 567 C-72.02734375 565.48828125 -72.02734375 565.48828125 -68.9375 564.3125 C-59.83564771 560.78883209 -52.20139845 557.31614439 -48 548 C-46.50623277 542.96188186 -45.75180943 538.22761 -45.3684082 532.99780273 C-44.76957891 524.93663915 -43.99529323 518.59534809 -39 512 C-37.76882464 510.25141259 -36.53972962 508.50135894 -35.3125 506.75 C-34.73113281 505.96109375 -34.14976562 505.1721875 -33.55078125 504.359375 C-29.76587979 498.60098587 -28.18598009 491.63744679 -29.38671875 484.796875 C-29.85146978 483.17519054 -30.41521303 481.58236475 -31 480 C-31.66 480 -32.32 480 -33 480 C-33.25007813 479.39414062 -33.50015625 478.78828125 -33.7578125 478.1640625 C-35.19055344 475.66802954 -36.41126068 474.81605507 -38.875 473.375 C-39.55304688 472.97023438 -40.23109375 472.56546875 -40.9296875 472.1484375 C-47.84888049 468.31024365 -54.460854 465.747128 -62.1875 464.1875 C-68.7768448 462.76102174 -74.25099242 460.64661772 -80.1953125 457.39453125 C-84.59958781 455.20466177 -89.21854537 454.0730036 -94 453 C-94.103125 451.700625 -94.20625 450.40125 -94.3125 449.0625 C-95.07958523 442.55761725 -96.06234893 436.40844921 -100.9375 431.6875 C-106.37307383 427.53628117 -113.16614268 425.93777805 -119.71484375 424.3359375 C-127.6858284 422.29713403 -132.34373762 418.25392142 -137.5 411.9375 C-140.69482242 408.18358366 -143.41128772 404.99265181 -148 403 C-151.75954038 402.7430838 -155.40088305 402.88192677 -159.1640625 403.0546875 C-164.06933531 402.98475489 -167.9018853 401.69503786 -172.4140625 399.875 C-175.16656603 398.94363929 -177.11711119 398.69197849 -180 399 C-182.7905817 400.89816542 -182.7905817 400.89816542 -185 403 C-187.90542812 401.6975667 -189.8092961 400.29113732 -192 398 C-199.20600546 399.76989608 -201.78011516 402.72388504 -205.75 408.91796875 C-206.1625 409.60503906 -206.575 410.29210937 -207 411 C-209.92567968 410.43698261 -212.74826918 409.79358092 -215.625 409 C-219.00909083 408.10742196 -222.19515015 407.85201177 -225.6875 407.6875 C-229.69675448 407.38208588 -230.76369333 407.18325823 -234.0625 404.625 C-239.2962802 397.53407199 -238.22387163 391.67323759 -237.0234375 383.296875 C-236.99577342 380.58579498 -237.47206541 379.22823795 -239 377 C-243.90105335 375.13759973 -248.8213783 374.54511807 -254 374 C-255.1875 372.0625 -255.1875 372.0625 -256 369 C-255.40387806 366.71123985 -254.57872093 364.56450052 -253.74609375 362.3515625 C-252.5961512 358.72713623 -252.66835192 355.78078811 -253 352 C-253.66 351.34 -254.32 350.68 -255 350 C-255 350.66 -255 351.32 -255 352 C-255.99 352 -256.98 352 -258 352 C-258.33 351.01 -258.66 350.02 -259 349 C-262.93102469 351.30108762 -265.64597273 353.60725877 -268.5625 357.125 C-272.9606969 362.29312196 -272.9606969 362.29312196 -277 363 C-280.56749432 363.06486353 -282.93259305 362.90900181 -285.7109375 360.54296875 C-291.75911551 353.77195971 -292.46435892 347.69795535 -292.24609375 338.7890625 C-291.60008141 328.84252336 -287.50064103 319.08426616 -280.3125 312 C-273.88544452 308.11951367 -267.11548594 307.89425169 -259.75 308.125 C-254.10421625 308.24868341 -251.69468396 306.97931867 -247 304 C-242.59519068 302.55565316 -239.0326008 302.64977239 -234.75 304.4375 C-229.35334982 307.54242202 -227.79671612 312.10604587 -226.203125 317.89453125 C-225.70959449 319.81577503 -225.24261128 321.74413104 -224.80859375 323.6796875 C-224.14299811 326.3402906 -224.14299811 326.3402906 -221 328 C-219.35114238 326.35114238 -219.8133564 324.38750271 -219.75390625 322.1171875 C-219.72103516 321.11429688 -219.68816406 320.11140625 -219.65429688 319.078125 C-219.59377323 316.96623598 -219.53640861 314.85425373 -219.48242188 312.7421875 C-219.03038723 299.3687851 -219.03038723 299.3687851 -214.75 294.375 C-212.91572061 292.79084962 -211.03659136 291.25720933 -209.1171875 289.77734375 C-205.78540578 287.00085898 -203.62335748 283.86431958 -201.375 280.1875 C-200.78827515 279.25828735 -200.78827515 279.25828735 -200.18969727 278.31030273 C-198.21497931 275.14187793 -196.44369902 271.97655112 -194.9375 268.5625 C-193.12767054 264.73182958 -190.50699483 262.48055819 -187.24609375 259.8359375 C-184.86405372 257.88887869 -182.66942314 255.80429898 -180.4375 253.6875 C-171.41771062 245.58753694 -161.02313389 239.43659911 -150.5 233.5 C-149.38818359 232.86783569 -149.38818359 232.86783569 -148.25390625 232.22290039 C-143.89809485 229.82001664 -139.83790664 228.17128266 -135 227 C-135 228.98 -135 230.96 -135 233 C-128.03949747 232.61330541 -123.0605925 230.36561591 -117 227 C-118.11375 225.88625 -118.11375 225.88625 -119.25 224.75 C-120.1575 223.8425 -121.065 222.935 -122 222 C-122.680625 221.34 -123.36125 220.68 -124.0625 220 C-126 218 -126 218 -127.875 215.3125 C-130.52329351 212.43053354 -132.150455 212.16737152 -136 212 C-136.99 212.495 -136.99 212.495 -138 213 C-138 213.99 -138 214.98 -138 216 C-138.33 215.34 -138.66 214.68 -139 214 C-141.31 214 -143.62 214 -146 214 C-145.75 211.125 -145.75 211.125 -145 208 C-143.3046875 207.015625 -143.3046875 207.015625 -141 206 C-139.74316406 205.21496094 -139.74316406 205.21496094 -138.4609375 204.4140625 C-129.44122274 199.18491141 -120.74291197 197.64812177 -110.41552734 196.50634766 C-101.8865428 195.48307494 -95.42308504 192.98301084 -88.3125 188.1875 C-86.61600678 185.3600113 -86.73716841 183.15521776 -87.32421875 179.953125 C-88.75170208 175.82745064 -92.31072777 173.56480578 -95.57421875 170.890625 C-98.7220573 167.13957745 -99.03624773 164.19008829 -99.5625 159.4375 C-100.14233719 153.499921 -100.14233719 153.499921 -103.08984375 148.47265625 C-103.72019531 147.98667969 -104.35054687 147.50070313 -105 147 C-105.30292969 147.56589844 -105.60585938 148.13179687 -105.91796875 148.71484375 C-109.3178442 154.66724107 -109.3178442 154.66724107 -112.5625 156.25 C-115.95288877 155.90226782 -116.82772139 154.57311574 -119 152 C-120.12493458 149.22193574 -120.93842628 146.4343248 -121.77734375 143.55859375 C-123.31807058 140.33438905 -124.79689694 139.49126505 -128 138 C-133.41523223 136.75715982 -136.95289736 136.91242919 -142.140625 138.8203125 C-146.01906732 141.2810049 -147.76311152 144.02145133 -148.8359375 148.453125 C-149.10277344 150.33257812 -149.10277344 150.33257812 -149.375 152.25 C-151.00033686 161.83320036 -154.83366831 167.42957422 -162.27734375 173.43359375 C-168.96333748 179.51314814 -172.6797839 188.79365029 -176 197 C-176 197.66 -176 198.32 -176 199 C-178.4375 198.625 -178.4375 198.625 -181 198 C-182.84535799 194.30928402 -182.28903187 189.57425627 -182.34179688 185.47265625 C-182.57629673 179.22296253 -184.39002145 175.52211788 -188.97265625 171.09375 C-194.01124787 167.25123527 -199.15802687 164.12822249 -204.8125 161.26171875 C-207 160 -207 160 -208 158 C-208.66689559 150.79550673 -205.03337561 146.63849448 -201 141 C-200.53335938 140.33355469 -200.06671875 139.66710937 -199.5859375 138.98046875 C-192.2367167 129.46086403 -181.04767303 125.58235203 -170 122 C-167.95424852 121.32475196 -165.91214712 120.63827861 -163.875 119.9375 C-163.02679688 119.65777344 -162.17859375 119.37804687 -161.3046875 119.08984375 C-158.02813077 117.54042116 -155.73240151 115.41597625 -154.0625 112.1875 C-153.96032112 108.61123931 -155.35522224 106.11940609 -157 103 C-160.7387969 99.55869876 -163.70654942 99.26855483 -168.65625 99.375 C-174.34700365 100.43869227 -179.1621033 103.19860538 -184.203125 105.95703125 Z M154 114.9375 C152.47195818 117.27731403 151.17145971 119.53853978 149.875 122 C147.26172376 126.867227 143.99547079 131.08616352 140.56591797 135.39453125 C135.20948341 142.00229678 135.20948341 142.00229678 133 150 C133.70848896 154.40837574 134.63436247 156.59083419 137.625 159.9375 C141.65363177 162.39944164 144.47152201 162.50588403 149 162 C149.82886719 161.92007813 150.65773438 161.84015625 151.51171875 161.7578125 C153.67911546 161.53324706 155.83918322 161.28010588 158 161 C158.391875 162.134375 158.78375 163.26875 159.1875 164.4375 C160.57121242 168.12038233 160.57121242 168.12038233 163.3125 168.9375 C164.199375 168.958125 165.08625 168.97875 166 169 C167.03125 169.103125 168.0625 169.20625 169.125 169.3125 C172.02148175 169.25785135 172.02148175 169.25785135 173.875 167.5 C175.49447592 163.90116461 175.86354101 160.81172397 175 157 C173.60471235 154.62053623 172.02400286 152.44666827 170.41015625 150.2109375 C167.09963723 145.02048385 167.85547482 140.30331312 169.0625 134.5 C170.42527782 127.79735807 169.51780792 123.64392348 166.0625 117.625 C163.8029973 114.74926929 162.21456478 113.21799881 158.5625 112.5625 C155.85370948 112.77664346 155.85370948 112.77664346 154 114.9375 Z M53.453125 121.33984375 C52.60878906 121.43330078 51.76445313 121.52675781 50.89453125 121.62304688 C50.02183594 121.72681641 49.14914062 121.83058594 48.25 121.9375 C47.36183594 122.03740234 46.47367188 122.13730469 45.55859375 122.24023438 C43.37159129 122.48715401 41.18555333 122.74061635 39 123 C38.67 124.32 38.34 125.64 38 127 C42.24362901 131.03662271 44.89841215 133 51 133 C55.62941153 132.11894338 59.02496014 131.14710571 62.125 127.5 C63.31370884 124.92133961 63.31370884 124.92133961 62 122 C59.06827485 120.83157632 56.54720689 120.98444245 53.453125 121.33984375 Z M64 124 C63.67 124.66 63.34 125.32 63 126 C63.66 126 64.32 126 65 126 C64.67 125.34 64.34 124.68 64 124 Z M190 141 C189.67 141.66 189.34 142.32 189 143 C190.93177929 146.97719266 193.65090112 149.82824269 196.79296875 152.86328125 C198.67837237 156.20087277 198.72047618 159.33071475 198 163 C196.61218522 165.89154503 194.79685515 168.30339882 192.8125 170.8125 C192.32974609 171.46669922 191.84699219 172.12089844 191.34960938 172.79492188 C188.63557286 176.36142087 186.23487574 179.2483014 182 181 C178.65234375 181.328125 178.65234375 181.328125 174.9375 181.25 C173.95330078 181.23682739 173.95330078 181.23682739 172.94921875 181.22338867 C168.76603003 181.14079907 164.65486277 180.77880868 160.5 180.3125 C154.56772301 179.78113294 150.84201948 180.7541679 146.08203125 184.515625 C144.00775159 186.29701798 142.00650245 188.14283647 140 190 C138.60620311 191.18988957 137.21040228 192.37743622 135.8125 193.5625 C133.42220559 195.63656869 131.36499605 197.68049534 129.4375 200.1875 C123.39439114 207.16031791 115.720203 208.26907249 107 210 C106.54041737 214.03742482 106.54041737 214.03742482 109.15234375 216.26171875 C110.53099609 217.46248047 110.53099609 217.46248047 111.9375 218.6875 C117.68037491 224.20261217 117.68037491 224.20261217 118.3125 228.8125 C118.30578447 232.61348863 117.61295373 235.1257509 115 238 C110.16810028 240.5050993 105.18925139 240.39996813 99.8828125 240.56640625 C95.88124586 240.74005914 92.51001172 240.98499327 89 243 C85.05196269 249.20008677 84.36857006 259.09560582 85.28515625 266.21484375 C86.11803655 269.52536795 87.20489572 271.98752492 90 274 C97.12797875 276.37599292 104.82082876 275.5906845 111.60546875 272.4921875 C119.81203439 267.37814497 125.02547894 258.34846299 130.28295898 250.44628906 C130.72325439 249.78467773 131.1635498 249.12306641 131.6171875 248.44140625 C132.19895752 247.55497437 132.19895752 247.55497437 132.79248047 246.65063477 C134 245 134 245 135.64892578 243.40991211 C137.23062697 242.08478869 137.23062697 242.08478869 137 240 C144.38157001 236.77056312 152.09709122 234.37369192 160 237 C163.75724676 239.60294668 166.83871687 242.71286961 170 246 C171.60288997 247.60544235 173.20700483 249.20966294 174.8125 250.8125 C175.54082031 251.55242187 176.26914062 252.29234375 177.01953125 253.0546875 C179.21828328 255.21440843 181.57298161 257.10389188 184 259 C185.86987216 262.73974432 185.30641834 267.46790828 184.5 271.5 C184.335 271.995 184.17 272.49 184 273 C186.49231085 272.6334837 187.67346311 272.41321026 189.265625 270.3984375 C191.50875143 265.78756651 192.78976312 262.23218069 192 257 C189.16487856 252.81190694 185.62713318 250.08659513 181.5625 247.1875 C175.4395087 242.63631758 170.66781727 238.5077666 169.5 230.625 C169.665 229.75875 169.83 228.8925 170 228 C170.99 227.34 171.98 226.68 173 226 C178.32375499 228.41878366 182.5368557 232.28497587 187 236 C187.87914062 236.71800781 188.75828125 237.43601562 189.6640625 238.17578125 C196.6551416 244.12136665 200.57502532 250.24438604 204.70703125 258.34765625 C208.95715629 266.89982533 208.95715629 266.89982533 216 273 C217.32 273 218.64 273 220 273 C220.09752461 267.53862186 219.77249145 262.40744018 219 257 C220.6875 256.25 220.6875 256.25 223 256 C228.55982573 259.55652344 229.96321442 264.0600347 232.27734375 270.00390625 C234.72975965 274.26921916 237.68541867 275.2352885 242.2109375 276.73046875 C247.65168353 277.87950717 252.95658896 278.20354683 258.5 278.25 C259.20688965 278.25926514 259.9137793 278.26853027 260.64208984 278.27807617 C264.77615602 278.37071289 264.77615602 278.37071289 268 276 C267.6958812 267.74200485 266.02401272 259.02401272 260 253 C255.55054421 252.45582195 251.25332043 252.58222652 247 254 C242.67890204 255.44036599 238.51480266 255.16060563 234 255 C227.91304348 244 227.91304348 244 229 239 C230.91255019 235.2733397 233.03425239 231.96574761 236 229 C239.88773727 229.32397811 243.60196189 229.92762943 247.4375 230.625 C248.283125 230.74875 249.12875 230.8725 250 231 C250.33 230.67 250.66 230.34 251 230 C250.66808519 223.90699236 248.52772253 219.48428272 245.625 214.1875 C245.17946777 213.36145264 244.73393555 212.53540527 244.27490234 211.68432617 C234.55182854 193.85416902 223.35446514 177.645452 210.5234375 161.91796875 C209 160 209 160 207 157 C206.34 157 205.68 157 205 157 C204.7525 156.443125 204.505 155.88625 204.25 155.3125 C201.90677083 150.97752604 198.6543411 147.28890699 195 144 C194.34 144 193.68 144 193 144 C193 143.34 193 142.68 193 142 C192.01 141.67 191.02 141.34 190 141 Z M97.8125 158.125 C95.67610252 161.51376842 95.42620648 163.06541586 96 167 C97.46662924 170.16483151 98.90004958 171.91467647 101.5625 174.1875 C106.52223228 179.91026802 106.2692777 187.72950205 106 195 C109.41748222 197.10306598 112.02085525 197.40603518 116 197 C118.87502253 196.02522193 118.87502253 196.02522193 121 194 C122.15787855 190.67109917 122.37517651 188.89104422 121 185.625 C119.2949911 183.38717581 117.52384121 181.38132481 115.625 179.3125 C111.73164351 174.95194073 109.36564505 170.31046527 107 165 C106.60554687 164.12988281 106.21109375 163.25976562 105.8046875 162.36328125 C104.85506103 160.2482041 103.92009895 158.12805008 103 156 C99.85035332 155.65160716 99.85035332 155.65160716 97.8125 158.125 Z M85.25 179.25 C83.15950252 182.17669648 82.88042219 184.70575351 82.9375 188.1875 C82.958125 189.445625 82.97875 190.70375 83 192 C86.7208267 192.80253125 89.27607436 193.2310401 92.9375 192.0625 C95.26963038 189.73036962 95.36600922 189.16334745 95.5 186 C95.32937897 183.48679831 95.14029157 182.22889677 93.8125 180.0625 C90.80083139 178.29703909 88.28188085 177.08437082 85.25 179.25 Z M-98.0625 204.5 C-98.371875 205.325 -98.68125 206.15 -99 207 C-96.02297 212.00682319 -92.65407423 213.12457027 -87.33984375 214.71484375 C-84.73036691 215.29061588 -84.73036691 215.29061588 -82 213 C-82.20024634 207.62979753 -82.20024634 207.62979753 -84.5 203 C-89.37407921 201.05036832 -94.52939551 200.21744911 -98.0625 204.5 Z M121 281.0625 C120.21625 281.30758301 119.4325 281.55266602 118.625 281.80517578 C116.71581856 282.44227986 114.85157212 283.21097779 113 284 C112.67 284.99 112.34 285.98 112 287 C111.505 286.01 111.505 286.01 111 285 C101.36575349 285.39484617 95.29832315 287.31661875 88.5 294.3125 C85.03087261 298.33031591 82.57736972 302.51187938 80.25 307.25 C76.6396645 314.59045838 71.79387084 319.89221337 66.12890625 325.71875 C61.86967807 330.11272327 58.24999588 334.8143448 55 340 C54.5359375 340.72574219 54.071875 341.45148438 53.59375 342.19921875 C50.16408757 348.83839636 51.07670755 355.32240198 51.64794922 362.53051758 C52.08713208 368.62831492 51.508117 373.51672191 49.71875 379.3984375 C48.16162418 385.03455596 48.08015672 390.59324935 50.4375 396 C53.45567235 401.30855847 57.84593658 405.5774767 62 410 C63.19388667 411.36945824 64.38192374 412.74405071 65.5625 414.125 C75.78228026 426.11892685 75.78228026 426.11892685 90.20385742 431.16113281 C102.86549987 431.3825217 114.6270266 430.68805812 127 428 C128.9788029 427.62308516 130.95791051 427.2477615 132.9375 426.875 C135.22500174 426.4277012 136.91270741 426.0436463 139 425 C141.3125 425.41796875 141.3125 425.41796875 144 426.1875 C144.886875 426.42855469 145.77375 426.66960937 146.6875 426.91796875 C149.48921607 428.22890684 149.77540801 429.25410872 151 432 C154.67480699 433.87343101 157.78415459 434.95046171 161.8125 435.875 C165 437 165 437 166.234375 439.0625 C167.39159074 443.50242977 166.71786425 447.7408001 166.18945312 452.234375 C165.12165013 464.09885274 170.8846365 475.02537158 175.41601562 485.68359375 C179.32269242 495.13202881 182.7531671 504.03531562 179 514 C178.75733398 514.65081543 178.51466797 515.30163086 178.26464844 515.97216797 C177.7508498 517.29758657 177.22571562 518.61866802 176.68920898 519.93505859 C172.22680403 530.90976487 172.21800692 537.781028 176 549 C176.96918008 552.01740975 177.92104954 555.0402472 178.875 558.0625 C179.1332959 558.87307861 179.3915918 559.68365723 179.65771484 560.51879883 C180.96732163 564.64450677 182.23808927 568.77604678 183.4296875 572.9375 C183.76444092 574.10526978 183.76444092 574.10526978 184.10595703 575.29663086 C184.52688935 576.77755308 184.94217614 578.2600947 185.35107422 579.74438477 C186.47006244 583.75633988 186.47006244 583.75633988 189 587 C198.49264163 577.88320915 207.20801953 568.61187853 215 558 C215.43151367 557.41863281 215.86302734 556.83726562 216.30761719 556.23828125 C222.32771159 548.10374654 227.9406826 539.77206479 233 531 C233.44601562 530.22688477 233.89203125 529.45376953 234.3515625 528.65722656 C259.84395933 484.06257249 277.48052526 431.6841627 279 380 C279.03254883 379.02450195 279.06509766 378.04900391 279.09863281 377.04394531 C279.63704003 358.7435385 277.86504044 346.10640659 269.64257812 329.73217773 C267.87014898 326.16428456 267 324.0575096 267 320 C270.98124131 320.56874876 273.61272328 321.87654754 277 324 C277.22424141 316.63740707 276.90120099 310.12950371 275 303 C272.62515175 302.1643073 271.42950426 301.83776181 269.03515625 302.7421875 C268.05869141 303.30292969 268.05869141 303.30292969 267.0625 303.875 C258.91971266 308.21582414 249.90984207 307.58077843 241 306 C238.6429774 305.05719096 236.30965848 304.05352843 234 303 C227.57794957 300.40671487 220.98243364 298.60967762 214 299 C210.5583853 300.65389142 210.5583853 300.65389142 208 303 C203.50662749 305.69694475 199.97755569 305.09207342 195 304 C191.31519095 302.79741482 187.79496637 301.31261713 184.25 299.75 C183.33089844 299.36714844 182.41179687 298.98429687 181.46484375 298.58984375 C176.38205197 296.39048812 172.39048685 294.45444716 169 290 C168.6171875 287.9375 168.6171875 287.9375 168.875 286 C169.03314586 283.20081828 168.96940029 281.91393832 168 279.1875 C164.14061061 274.96629286 159.08941195 273.84544771 153.5625 273.5625 C142.5069933 273.95070863 131.45917249 277.70810594 121 281.0625 Z M-236 343 C-236 343.66 -236 344.32 -236 345 C-235.26394531 345.03738281 -234.52789062 345.07476562 -233.76953125 345.11328125 C-223.72798299 345.78979243 -223.72798299 345.78979243 -220 349 C-218.89070309 350.34996731 -217.78709128 351.70461547 -216.6875 353.0625 C-213.08931904 357.33780035 -210.54376644 358.44562336 -205 359 C-204.01 358.34 -203.02 357.68 -202 357 C-202.07235665 353.96102085 -202.37303967 351.76000715 -204.34375 349.37109375 C-209.17109255 344.99357175 -214.38036223 342.23104071 -220.9375 341.8125 C-221.618125 341.874375 -222.29875 341.93625 -223 342 C-223.33 342 -223.66 342 -224 342 C-224 341.67 -224 341.34 -224 341 C-230.31268603 340.62447835 -230.31268603 340.62447835 -236 343 Z M-192 359 C-191.14639995 361.94880018 -190.61147217 363.59872139 -188 365.3125 C-183.70530229 366.29670156 -179.38275505 366.52748202 -175 366 C-174.34 365.34 -173.68 364.68 -173 364 C-173 363.01 -173 362.02 -173 361 C-176.20127338 358.86581774 -177.63219892 358.62525461 -181.375 358.3125 C-182.31085938 358.22613281 -183.24671875 358.13976562 -184.2109375 358.05078125 C-186.97578769 358.00044084 -189.32004815 358.35193892 -192 359 Z " fill="#35B3E2" transform="translate(508,96)"/>
<path d="M0 0 C5.56655668 0.35873365 10.24006368 0.82670912 15 4 C16.875 6.6875 16.875 6.6875 18 9 C16.68 8.34 15.36 7.68 14 7 C14 6.34 14 5.68 14 5 C5.93334859 2.69770796 -2.16342715 4.15505799 -10.1875 5.9375 C-23.93908956 8.88799268 -39.70431789 12.17299527 -53 6 C-53.33 5.34 -53.66 4.68 -54 4 C-52.89527344 4.32355469 -51.79054688 4.64710938 -50.65234375 4.98046875 C-45.60889547 6.23329985 -40.73940674 6.34257445 -35.5625 6.3125 C-34.1247522 6.30839111 -34.1247522 6.30839111 -32.65795898 6.30419922 C-21.40182293 6.14151397 -10.77475339 4.19766875 0 1 C0 0.67 0 0.34 0 0 Z " fill="#2FA4D0" transform="translate(642,520)"/>
<path d="M0 0 C0 0.33 0 0.66 0 1 C-0.56589844 1.12117188 -1.13179688 1.24234375 -1.71484375 1.3671875 C-2.81505859 1.61855469 -2.81505859 1.61855469 -3.9375 1.875 C-4.66839844 2.03742188 -5.39929688 2.19984375 -6.15234375 2.3671875 C-8.20700294 2.82961523 -8.20700294 2.82961523 -9 5 C-8.01 5 -7.02 5 -6 5 C-5.67 4.34 -5.34 3.68 -5 3 C-5 3.66 -5 4.32 -5 5 C-3.453125 4.87625 -3.453125 4.87625 -1.875 4.75 C2.77755822 5.05016505 4.4354272 6.04216299 8 9 C8.97281962 10.19670139 9.93063169 11.40572123 10.875 12.625 C14.13608938 16.64528479 16.93047585 17.32406345 22 18 C22.66 17.67 23.32 17.34 24 17 C23.505 13.535 23.505 13.535 23 10 C23.66 10 24.32 10 25 10 C25.99 12.64 26.98 15.28 28 18 C24.16177822 19.80622201 21.23634378 20.51873597 17 20 C12.41388374 17.61139778 9.46653385 14.46739599 6.296875 10.48828125 C4.4549657 8.37452389 3.29342106 8.02892884 0.50390625 7.75390625 C-1.45427082 7.62648171 -3.41260673 7.50147468 -5.37109375 7.37890625 C-8 7 -8 7 -11 5 C-10.1875 3.0625 -10.1875 3.0625 -9 1 C-5.8035914 -0.06546953 -3.34252724 -0.07427838 0 0 Z " fill="#31AAD4" transform="translate(281,436)"/>
<path d="M0 0 C-3.61491023 2.40994015 -6.59570656 2.75176686 -10.8203125 3.4375 C-11.53960938 3.623125 -12.25890625 3.80875 -13 4 C-13.33 4.66 -13.66 5.32 -14 6 C-14.70125 5.98839844 -15.4025 5.97679687 -16.125 5.96484375 C-22.64374505 5.90002144 -22.64374505 5.90002144 -29.125 6.5 C-33.45561317 7.0587888 -37.6430987 7.09076878 -42 7 C-42 6.67 -42 6.34 -42 6 C-40.47862427 5.78065796 -40.47862427 5.78065796 -38.92651367 5.55688477 C-35.1634124 5.01360275 -31.40084482 4.46669963 -27.63842773 3.91870117 C-26.00999042 3.68203517 -24.38141006 3.44635127 -22.75268555 3.21166992 C-20.41156318 2.87416584 -18.07097805 2.53313264 -15.73046875 2.19140625 C-15.00224411 2.08719864 -14.27401947 1.98299103 -13.52372742 1.87562561 C-0.64542306 -0.01744387 -0.64542306 -0.01744387 0 0 Z " fill="#2BA3CB" transform="translate(546,826)"/>
<path d="M0 0 C0.99 0.33 1.98 0.66 3 1 C-1.46351289 6.22325977 -6.0744893 11.20922972 -11 16 C-11.33 15.01 -11.66 14.02 -12 13 C-10.56354149 11.39490066 -9.12579294 9.79095576 -7.6875 8.1875 C-6.88699219 7.29417969 -6.08648437 6.40085938 -5.26171875 5.48046875 C-3.54775419 3.60073214 -1.82122396 1.77407253 0 0 Z " fill="#37ADD8" transform="translate(199,206)"/>
<path d="M0 0 C7.06536889 1.25353319 12.71456473 3.56203749 19 7 C19 7.66 19 8.32 19 9 C20.98 9.66 22.96 10.32 25 11 C21.4308454 12.1897182 20.92819134 11.79554261 17.65625 10.234375 C16.82222656 9.83863281 15.98820312 9.44289063 15.12890625 9.03515625 C13.82759766 8.39900391 13.82759766 8.39900391 12.5 7.75 C11.63246094 7.34136719 10.76492188 6.93273437 9.87109375 6.51171875 C2.83402185 3.1291386 2.83402185 3.1291386 0 0 Z " fill="#33A4D1" transform="translate(293,792)"/>
<path d="M0 0 C2.475 0.495 2.475 0.495 5 1 C2.06171403 3.50298434 -0.17902761 4.46930939 -4 5 C-4 5.66 -4 6.32 -4 7 C-5.64453125 8.25390625 -5.64453125 8.25390625 -7.8125 9.5625 C-8.87404297 10.21412109 -8.87404297 10.21412109 -9.95703125 10.87890625 C-12 12 -12 12 -15 13 C-15 13.66 -15 14.32 -15 15 C-15.66 14.67 -16.32 14.34 -17 14 C-14.1751363 8.4786755 -10.94332911 6.60601313 -5.33984375 4.078125 C-2.81149027 2.98670134 -2.81149027 2.98670134 0 1 C0 0.67 0 0.34 0 0 Z " fill="#30ACD9" transform="translate(443,656)"/>
<path d="M0 0 C4.92814122 4.92814122 4.12948428 15.89069248 4.1875 22.5625 C4.16241679 26.17949882 3.79773457 29.47082227 3 33 C2.67 33 2.34 33 2 33 C1.38483035 25.47515691 0.94177057 18.03810842 1.03125 10.48828125 C0.98657083 6.93070256 0.53064455 3.51552016 0 0 Z " fill="#31A2CD" transform="translate(785,442)"/>
<path d="M0 0 C0.33 0 0.66 0 1 0 C1.17942163 3.94727588 1.09350689 6.5980513 -1 10 C2.12197478 8.6910428 2.12197478 8.6910428 4 6 C4.66 6 5.32 6 6 6 C4.25 10.875 4.25 10.875 2 12 C-0.3329866 12.04022391 -2.66706666 12.04320247 -5 12 C-5 11.01 -5 10.02 -5 9 C-4.360625 8.38125 -3.72125 7.7625 -3.0625 7.125 C-0.72009185 4.71160978 -0.36484584 3.2836126 0 0 Z " fill="#32A9D4" transform="translate(693,359)"/>
<path d="M0 0 C2.4375 0.375 2.4375 0.375 5 1 C5.33 1.66 5.66 2.32 6 3 C4.68 2.67 3.36 2.34 2 2 C0.9187609 8.06050614 0.9187609 8.06050614 2 14 C-0.77022619 11.35021843 -1.93556937 10.00941316 -2.1875 6.0625 C-2 3 -2 3 0 0 Z " fill="#32ABD5" transform="translate(679,321)"/>
<path d="M0 0 C0.680625 0.7425 1.36125 1.485 2.0625 2.25 C5.03073132 5.24381953 8.28714872 7.03437285 12 9 C11.67 10.32 11.34 11.64 11 13 C9.68 13.33 8.36 13.66 7 14 C7.33 13.34 7.66 12.68 8 12 C7.4121875 11.443125 7.4121875 11.443125 6.8125 10.875 C0 3.82758621 0 3.82758621 0 0 Z " fill="#30ADD8" transform="translate(381,311)"/>
<path d="M0 0 C0 3 0 3 -2 6 C-5.80718548 5.27246734 -9.55485569 4.38723428 -13.3125 3.4375 C-14.38113281 3.16808594 -15.44976562 2.89867187 -16.55078125 2.62109375 C-17.35902344 2.41613281 -18.16726563 2.21117187 -19 2 C-19 1.67 -19 1.34 -19 1 C-13.94921974 0.78507318 -9.86524399 1.40567007 -5.015625 2.85546875 C-2.88060635 3.24091058 -2.88060635 3.24091058 -1.234375 1.55078125 C-0.82703125 1.03902344 -0.4196875 0.52726562 0 0 Z " fill="#31A9D4" transform="translate(303,502)"/>
<path d="M0 0 C-0.804375 0.28875 -1.60875 0.5775 -2.4375 0.875 C-5.1326468 1.73262568 -5.1326468 1.73262568 -6 4 C-6.86625 3.835 -7.7325 3.67 -8.625 3.5 C-11.81225199 3.02781452 -14.78485027 2.92344882 -18 3 C-15.31546011 0.31546011 -13.28847384 0.36495766 -9.5625 -0.1875 C-8.40878906 -0.36667969 -7.25507812 -0.54585938 -6.06640625 -0.73046875 C-3 -1 -3 -1 0 0 Z " fill="#2EA9D4" transform="translate(626,379)"/>
<path d="M0 0 C5.80342274 1.48805711 10.17590879 4.59097555 15 8 C13.203125 8.61328125 13.203125 8.61328125 11 9 C7.75 7.1875 7.75 7.1875 5 5 C5 4.34 5 3.68 5 3 C2.525 2.01 2.525 2.01 0 1 C0 0.67 0 0.34 0 0 Z " fill="#33A8D1" transform="translate(654,145)"/>
<path d="M0 0 C5.93721374 1.59101806 9.97123821 3.08994657 14 8 C14.33 8.66 14.66 9.32 15 10 C9.18929507 7.88701639 3.32111895 5.47007827 0 0 Z " fill="#33A7CF" transform="translate(260,772)"/>
<path d="M0 0 C3 1 3 1 4.16796875 2.671875 C7.55343511 9.57251908 7.55343511 9.57251908 7 14 C4.44736912 11.725306 3.15855185 9.56797307 1.8125 6.4375 C1.46832031 5.65246094 1.12414062 4.86742187 0.76953125 4.05859375 C0 2 0 2 0 0 Z " fill="#34A7D2" transform="translate(130,620)"/>
<path d="M0 0 C1.0625 1.8125 1.0625 1.8125 2 4 C1.33333333 6 0.66666667 8 0 10 C-0.22325814 12.05893621 -0.40705759 14.12233653 -0.5625 16.1875 C-0.64628906 17.27417969 -0.73007812 18.36085938 -0.81640625 19.48046875 C-0.87699219 20.31191406 -0.93757812 21.14335937 -1 22 C-1.33 22 -1.66 22 -2 22 C-2.2137731 14.31604457 -2.01670288 7.43659188 0 0 Z " fill="#37BEEB" transform="translate(593,341)"/>
<path d="M0 0 C0.99 0.495 0.99 0.495 2 1 C2 1.66 2 2.32 2 3 C2.99 3.33 3.98 3.66 5 4 C6.25 5.8125 6.25 5.8125 7 8 C6.546875 10.13671875 6.546875 10.13671875 6 12 C4.99466333 10.37829621 3.99588093 8.75252763 3 7.125 C2.443125 6.22007812 1.88625 5.31515625 1.3125 4.3828125 C0 2 0 2 0 0 Z " fill="#33A5D1" transform="translate(139,638)"/>
<path d="M0 0 C0.66 0 1.32 0 2 0 C0.60632076 3.37227049 -0.84275299 4.90493713 -3.9375 6.8125 C-4.62714844 7.25207031 -5.31679688 7.69164062 -6.02734375 8.14453125 C-8 9 -8 9 -11 8 C-9.2421875 7.05598958 -7.484375 6.11197917 -5.7265625 5.16796875 C-3.69497635 3.95236507 -3.69497635 3.95236507 -2 1 C-1.34 1.33 -0.68 1.66 0 2 C0 1.34 0 0.68 0 0 Z " fill="#30AAD4" transform="translate(573,220)"/>
<path d="M0 0 C4.24822374 0.47202486 6.19989709 2.96655518 9 6 C8.67 6.99 8.34 7.98 8 9 C6.84775972 8.07038578 5.70340824 7.1309875 4.5625 6.1875 C3.60537109 5.40439453 3.60537109 5.40439453 2.62890625 4.60546875 C1 3 1 3 0 0 Z " fill="#37AAD3" transform="translate(200,722)"/>
<path d="M0 0 C0.33 1.32 0.66 2.64 1 4 C0.01 4.33 -0.98 4.66 -2 5 C-2.72904086 6.64034193 -3.38655243 8.31301918 -4 10 C-4.97236487 11.6829392 -5.96564444 13.35443434 -7 15 C-7.33 14.34 -7.66 13.68 -8 13 C-6.75506252 10.71025684 -5.47358472 8.55809966 -4.0625 6.375 C-3.67642578 5.76398438 -3.29035156 5.15296875 -2.89257812 4.5234375 C-1.93553674 3.0110758 -0.96867189 1.50493883 0 0 Z " fill="#34A3C8" transform="translate(153,265)"/>
<path d="M0 0 C4.17494967 0.4638833 6.22351059 0.8613598 9 4 C10.64605826 5.03357147 12.30963442 6.04060332 14 7 C13.01 7.495 13.01 7.495 12 8 C9.1796875 6.6015625 9.1796875 6.6015625 5.875 4.625 C4.77929688 3.97789062 3.68359375 3.33078125 2.5546875 2.6640625 C1.71164062 2.11492188 0.86859375 1.56578125 0 1 C0 0.67 0 0.34 0 0 Z " fill="#31A0CC" transform="translate(279,784)"/>
<path d="M0 0 C0.8125 1.625 0.8125 1.625 1 4 C-0.46818136 6.24609835 -2.15852858 8.02378677 -4 10 C-4.8125 8.375 -4.8125 8.375 -5 6 C-3.53181864 3.75390165 -1.84147142 1.97621323 0 0 Z " fill="#36ABD3" transform="translate(762,684)"/>
<path d="M0 0 C4.48222888 2.18054378 6.24897776 4.33060736 8 9 C7.67 9.99 7.34 10.98 7 12 C6.71125 11.360625 6.4225 10.72125 6.125 10.0625 C5.17176549 7.84793921 5.17176549 7.84793921 3 7 C2.66666667 5.66666667 2.33333333 4.33333333 2 3 C1.34 2.67 0.68 2.34 0 2 C0 1.34 0 0.68 0 0 Z " fill="#2EA7D7" transform="translate(606,267)"/>
<path d="M0 0 C0.33 0.66 0.66 1.32 1 2 C-0.89732848 6.11087838 -3.0054207 7.94872955 -7 10 C-5.33248852 6.05860922 -2.77289351 3.2107188 0 0 Z " fill="#35A8D1" transform="translate(182,225)"/>
<path d="M0 0 C0.66 0.33 1.32 0.66 2 1 C-2.30769231 6.78461538 -2.30769231 6.78461538 -5.8125 7.875 C-6.8953125 7.936875 -6.8953125 7.936875 -8 8 C-5.58443874 4.80800833 -3.31996462 2.25283313 0 0 Z " fill="#35A8D0" transform="translate(240,169)"/>
<path d="M0 0 C3.81936528 1.55603771 6.26044438 3.95604931 9 7 C9 7.66 9 8.32 9 9 C6.00306862 8.00102287 4.97290587 7.34869747 3 5 C3 4.34 3 3.68 3 3 C2.01 2.67 1.02 2.34 0 2 C0 1.34 0 0.68 0 0 Z " fill="#33A8D5" transform="translate(698,235)"/>
<path d="M0 0 C0 0.99 0 1.98 0 3 C-2.35438733 4.42944945 -3.48032433 5.08661261 -6.25 4.625 C-6.8275 4.41875 -7.405 4.2125 -8 4 C-2.25 0 -2.25 0 0 0 Z " fill="#37ABD5" transform="translate(275,147)"/>
<path d="M0 0 C0.66 0.33 1.32 0.66 2 1 C1.57692877 2.31722179 1.13602514 3.62872664 0.6875 4.9375 C0.44386719 5.66839844 0.20023438 6.39929688 -0.05078125 7.15234375 C-1 9 -1 9 -4 10 C-2.8905928 6.51329166 -1.73662334 3.22515763 0 0 Z " fill="#35A5CE" transform="translate(142,283)"/>
<path d="M0 0 C0.33 0.66 0.66 1.32 1 2 C-0.98 4.97 -0.98 4.97 -3 8 C-3.75 6.25 -3.75 6.25 -4 4 C-2.0625 1.75 -2.0625 1.75 0 0 Z " fill="#35A9D5" transform="translate(184,288)"/>
<path d="M0 0 C0.66 0.33 1.32 0.66 2 1 C-2.455 3.97 -2.455 3.97 -7 7 C-6 3 -6 3 -3.0625 1.1875 C-2.051875 0.795625 -1.04125 0.40375 0 0 Z " fill="#34A7D0" transform="translate(605,382)"/>
<path d="M0 0 C2.99324263 1.0975223 3.84610901 1.67682892 5.25 4.625 C5.4975 5.40875 5.745 6.1925 6 7 C1.2 4.53846154 1.2 4.53846154 0.1875 1.8125 C0.125625 1.214375 0.06375 0.61625 0 0 Z " fill="#35ABD5" transform="translate(774,260)"/>
<path d="M0 0 C0.99 0.495 0.99 0.495 2 1 C1.67 1.99 1.34 2.98 1 4 C0.67 2.68 0.34 1.36 0 0 Z " fill="#0E9CF0" transform="translate(109,572)"/>
<path d="M0 0 C0.33 0 0.66 0 1 0 C1 1.65 1 3.3 1 5 C0.34 4.67 -0.32 4.34 -1 4 C-0.67 2.68 -0.34 1.36 0 0 Z " fill="#0AB4FF" transform="translate(323,285)"/>
<path d="M0 0 C1.98 0 3.96 0 6 0 C6 0.33 6 0.66 6 1 C4.02 1 2.04 1 0 1 C0 0.67 0 0.34 0 0 Z " fill="#31B8FF" transform="translate(666,278)"/>
<path d="M0 0 C1.65 0 3.3 0 5 0 C5 0.33 5 0.66 5 1 C3.35 1 1.7 1 0 1 C0 0.67 0 0.34 0 0 Z " fill="#00CCFF" transform="translate(300,192)"/>
<path d="M0 0 C0.66 0.99 1.32 1.98 2 3 C1.01 2.67 0.02 2.34 -1 2 C-0.67 1.34 -0.34 0.68 0 0 Z " fill="#19E5FF" transform="translate(311,173)"/>
<path d="M0 0 C1.485 0.99 1.485 0.99 3 2 C2.01 2 1.02 2 0 2 C0 1.34 0 0.68 0 0 Z " fill="#229DF2" transform="translate(636,520)"/>
<path d="M0 0 C0.99 0 1.98 0 3 0 C2.67 0.66 2.34 1.32 2 2 C1.34 1.34 0.68 0.68 0 0 Z " fill="#10CFFF" transform="translate(277,438)"/>
<path d="M0 0 C0.66 0 1.32 0 2 0 C2 0.66 2 1.32 2 2 C1.34 2 0.68 2 0 2 C0 1.34 0 0.68 0 0 Z " fill="#0CF2FF" transform="translate(758,350)"/>
<path d="M0 0 C0.99 0 1.98 0 3 0 C2.67 0.66 2.34 1.32 2 2 C1.34 1.34 0.68 0.68 0 0 Z " fill="#00FFFF" transform="translate(374,310)"/>
<path d="M0 0 C0.66 0 1.32 0 2 0 C1.67 0.99 1.34 1.98 1 3 C0.67 2.01 0.34 1.02 0 0 Z " fill="#009FFF" transform="translate(418,299)"/>
<path d="M0 0 C0.33 0.66 0.66 1.32 1 2 C0.01 1.67 -0.98 1.34 -2 1 C-1.34 0.67 -0.68 0.34 0 0 Z " fill="#00FFFF" transform="translate(393,254)"/>
<path d="M0 0 C0.33 0.99 0.66 1.98 1 3 C0.34 2.67 -0.32 2.34 -1 2 C-0.67 1.34 -0.34 0.68 0 0 Z " fill="#2A95FF" transform="translate(420,211)"/>
<path d="M0 0 C4 1 4 1 4 1 Z " fill="#00DFFF" transform="translate(338,197)"/>
<path d="M0 0 C0.99 0.33 1.98 0.66 3 1 C2.01 1.33 1.02 1.66 0 2 C0 1.34 0 0.68 0 0 Z " fill="#15CAFF" transform="translate(345,163)"/>
<path d="M0 0 C4 1 4 1 4 1 Z " fill="#15CAFF" transform="translate(497,139)"/>
<path d="M0 0 C3 1 3 1 3 1 Z " fill="#1CB8E2" transform="translate(539,829)"/>
<path d="M0 0 C3 1 3 1 3 1 Z " fill="#00FFFF" transform="translate(568,822)"/>
<path d="M0 0 C3 1 3 1 3 1 Z " fill="#1CB8FF" transform="translate(178,702)"/>
<path d="" fill="#00AAFF" transform="translate(0,0)"/>
<path d="M0 0 C0.99 0.495 0.99 0.495 2 1 C1.01 1.495 1.01 1.495 0 2 C0 1.34 0 0.68 0 0 Z " fill="#00AAFF" transform="translate(410,544)"/>
<path d="" fill="#00FFFF" transform="translate(0,0)"/>
<path d="M0 0 C3 1 3 1 3 1 Z " fill="#1CB8FF" transform="translate(355,500)"/>
<path d="" fill="#15E9FF" transform="translate(0,0)"/>
<path d="M0 0 C3 1 3 1 3 1 Z " fill="#1CE2FF" transform="translate(762,405)"/>
<path d="M0 0 C3 1 3 1 3 1 Z " fill="#00D4FF" transform="translate(248,402)"/>
<path d="M0 0 C0.33 0.66 0.66 1.32 1 2 C0.34 1.67 -0.32 1.34 -1 1 C-0.67 0.67 -0.34 0.34 0 0 Z " fill="#38C6FF" transform="translate(254,400)"/>
<path d="" fill="#00D4FF" transform="translate(0,0)"/>
<path d="M0 0 C0.33 0.66 0.66 1.32 1 2 C0.34 1.67 -0.32 1.34 -1 1 C-0.67 0.67 -0.34 0.34 0 0 Z " fill="#1CE2FF" transform="translate(774,369)"/>
<path d="" fill="#15BFFF" transform="translate(0,0)"/>
<path d="M0 0 C0.33 0.66 0.66 1.32 1 2 C0.34 1.67 -0.32 1.34 -1 1 C-0.67 0.67 -0.34 0.34 0 0 Z " fill="#00D4FF" transform="translate(624,334)"/>
<path d="M0 0 C3 1 3 1 3 1 Z " fill="#1CB8FF" transform="translate(687,279)"/>
<path d="M0 0 C0.66 0.66 1.32 1.32 2 2 C1.34 2 0.68 2 0 2 C0 1.34 0 0.68 0 0 Z " fill="#00FFFF" transform="translate(600,278)"/>
<path d="M0 0 C0.33 0.66 0.66 1.32 1 2 C0.34 1.67 -0.32 1.34 -1 1 C-0.67 0.67 -0.34 0.34 0 0 Z " fill="#1CE2FF" transform="translate(596,275)"/>
<path d="M0 0 C0.66 0 1.32 0 2 0 C1.67 0.66 1.34 1.32 1 2 C0.67 1.34 0.34 0.68 0 0 Z " fill="#38C6FF" transform="translate(403,245)"/>
<path d="M0 0 C0.33 0.66 0.66 1.32 1 2 C0.34 1.67 -0.32 1.34 -1 1 C-0.67 0.67 -0.34 0.34 0 0 Z " fill="#34BCDF" transform="translate(288,187)"/>
<path d="" fill="#00D4FF" transform="translate(0,0)"/>
<path d="M0 0 C0.66 0 1.32 0 2 0 C1.67 0.66 1.34 1.32 1 2 C0.67 1.34 0.34 0.68 0 0 Z " fill="#00D4FF" transform="translate(388,181)"/>
<path d="M0 0 C0.66 0 1.32 0 2 0 C1.67 0.66 1.34 1.32 1 2 C0.67 1.34 0.34 0.68 0 0 Z " fill="#1CB8FF" transform="translate(326,166)"/>
<path d="M0 0 C0.66 0 1.32 0 2 0 C1.67 0.66 1.34 1.32 1 2 C0.67 1.34 0.34 0.68 0 0 Z " fill="#15BFFF" transform="translate(547,147)"/>
<path d="M0 0 C3 1 3 1 3 1 Z " fill="#38C6FF" transform="translate(323,120)"/>
<path d="M0 0 C3 1 3 1 3 1 Z " fill="#1CE2FF" transform="translate(370,105)"/>
<path d="M0 0 C3 1 3 1 3 1 Z " fill="#00AAFF" transform="translate(518,97)"/>
<path d="M0 0 C2 1 2 1 2 1 Z " fill="#00FFFF" transform="translate(458,837)"/>
<path d="M0 0 C2 1 2 1 2 1 Z " fill="#00BFFF" transform="translate(504,835)"/>
<path d="M0 0 C2 1 2 1 2 1 Z " fill="#00FFFF" transform="translate(533,830)"/>
<path d="M0 0 C2 1 2 1 2 1 Z " fill="#2AD4D4" transform="translate(397,830)"/>
<path d="" fill="#00FFFF" transform="translate(0,0)"/>
<path d="M0 0 C2 1 2 1 2 1 Z " fill="#00FFFF" transform="translate(387,828)"/>
<path d="M0 0 C2 1 2 1 2 1 Z " fill="#19CCE5" transform="translate(566,823)"/>
<path d="M0 0 C2 1 2 1 2 1 Z " fill="#20DFDF" transform="translate(366,823)"/>
<path d="M0 0 C2 1 2 1 2 1 Z " fill="#00BFFF" transform="translate(362,822)"/>
<path d="M0 0 C2 1 2 1 2 1 Z " fill="#00FFFF" transform="translate(355,820)"/>
<path d="M0 0 C2 1 2 1 2 1 Z " fill="#00BFFF" transform="translate(337,814)"/>
<path d="M0 0 C2 1 2 1 2 1 Z " fill="#00FFFF" transform="translate(330,811)"/>
<path d="M0 0 C2 1 2 1 2 1 Z " fill="#209FDF" transform="translate(614,806)"/>
<path d="M0 0 C2 1 2 1 2 1 Z " fill="#2AD4D4" transform="translate(302,799)"/>
<path d="" fill="#00BFFF" transform="translate(0,0)"/>
<path d="" fill="#00FFFF" transform="translate(0,0)"/>
<path d="M0 0 C2 1 2 1 2 1 Z " fill="#00FFFF" transform="translate(148,661)"/>
<path d="" fill="#00BFFF" transform="translate(0,0)"/>
<path d="" fill="#2A95D4" transform="translate(0,0)"/>
<path d="" fill="#00BFFF" transform="translate(0,0)"/>
<path d="" fill="#00BFFF" transform="translate(0,0)"/>
<path d="" fill="#20DFDF" transform="translate(0,0)"/>
<path d="" fill="#00BFFF" transform="translate(0,0)"/>
<path d="" fill="#00FFFF" transform="translate(0,0)"/>
<path d="" fill="#00FFFF" transform="translate(0,0)"/>
<path d="M0 0 C2 1 2 1 2 1 Z " fill="#00FFFF" transform="translate(612,525)"/>
<path d="M0 0 C2 1 2 1 2 1 Z " fill="#00FFFF" transform="translate(590,523)"/>
<path d="" fill="#00BFFF" transform="translate(0,0)"/>
<path d="M0 0 C2 1 2 1 2 1 Z " fill="#19A6E5" transform="translate(274,503)"/>
<path d="M0 0 C2 1 2 1 2 1 Z " fill="#00FFFF" transform="translate(347,501)"/>
<path d="" fill="#00FFFF" transform="translate(0,0)"/>
<path d="" fill="#00BFFF" transform="translate(0,0)"/>
<path d="" fill="#00FFFF" transform="translate(0,0)"/>
<path d="" fill="#00BFFF" transform="translate(0,0)"/>
<path d="" fill="#20DFFF" transform="translate(0,0)"/>
<path d="M0 0 C2 1 2 1 2 1 Z " fill="#00BFFF" transform="translate(206,465)"/>
<path d="" fill="#00FFFF" transform="translate(0,0)"/>
<path d="" fill="#00BFFF" transform="translate(0,0)"/>
<path d="" fill="#00FFFF" transform="translate(0,0)"/>
<path d="M0 0 C2 1 2 1 2 1 Z " fill="#35B4E9" transform="translate(302,447)"/>
<path d="M0 0 C2 1 2 1 2 1 Z " fill="#44AEF2" transform="translate(247,447)"/>
<path d="" fill="#0080FF" transform="translate(0,0)"/>
<path d="" fill="#00FFFF" transform="translate(0,0)"/>
<path d="" fill="#1595E9" transform="translate(0,0)"/>
<path d="" fill="#00FFFF" transform="translate(0,0)"/>
<path d="" fill="#00FFFF" transform="translate(0,0)"/>
<path d="M0 0 C2 1 2 1 2 1 Z " fill="#00BFFF" transform="translate(743,368)"/>
<path d="" fill="#00FFFF" transform="translate(0,0)"/>
<path d="" fill="#2AD4FF" transform="translate(0,0)"/>
<path d="M0 0 C2 1 2 1 2 1 Z " fill="#00FFFF" transform="translate(736,353)"/>
<path d="" fill="#2A95FF" transform="translate(0,0)"/>
<path d="" fill="#00BFFF" transform="translate(0,0)"/>
<path d="" fill="#2AD4D4" transform="translate(0,0)"/>
<path d="M0 0 C2 1 2 1 2 1 Z " fill="#00BFFF" transform="translate(355,328)"/>
<path d="M0 0 C2 1 2 1 2 1 Z " fill="#00FFFF" transform="translate(383,319)"/>
<path d="" fill="#2AD4FF" transform="translate(0,0)"/>
<path d="" fill="#00BFFF" transform="translate(0,0)"/>
<path d="M0 0 C2 1 2 1 2 1 Z " fill="#19E5FF" transform="translate(631,303)"/>
<path d="" fill="#00BFFF" transform="translate(0,0)"/>
<path d="" fill="#00BFFF" transform="translate(0,0)"/>
<path d="M0 0 C2 1 2 1 2 1 Z " fill="#209FFF" transform="translate(678,279)"/>
<path d="M0 0 C2 1 2 1 2 1 Z " fill="#00FFFF" transform="translate(658,279)"/>
<path d="M0 0 C2 1 2 1 2 1 Z " fill="#00BFFF" transform="translate(624,279)"/>
<path d="M0 0 C2 1 2 1 2 1 Z " fill="#00FFFF" transform="translate(661,278)"/>
<path d="" fill="#00BFFF" transform="translate(0,0)"/>
<path d="" fill="#20DFDF" transform="translate(0,0)"/>
<path d="" fill="#55AAFF" transform="translate(0,0)"/>
<path d="" fill="#2AD4FF" transform="translate(0,0)"/>
<path d="M0 0 C2 1 2 1 2 1 Z " fill="#0080FF" transform="translate(381,237)"/>
<path d="M0 0 C2 1 2 1 2 1 Z " fill="#00BFFF" transform="translate(760,234)"/>
<path d="" fill="#2AD4FF" transform="translate(0,0)"/>
<path d="" fill="#00BFFF" transform="translate(0,0)"/>
<path d="" fill="#00BFFF" transform="translate(0,0)"/>
<path d="M0 0 C2 1 2 1 2 1 Z " fill="#00FFFF" transform="translate(667,211)"/>
<path d="M0 0 C2 1 2 1 2 1 Z " fill="#00BFFF" transform="translate(287,207)"/>
<path d="M0 0 C2 1 2 1 2 1 Z " fill="#00FFFF" transform="translate(285,206)"/>
<path d="" fill="#19A6FF" transform="translate(0,0)"/>
<path d="" fill="#00FFFF" transform="translate(0,0)"/>
<path d="M0 0 C2 1 2 1 2 1 Z " fill="#00FFFF" transform="translate(219,184)"/>
<path d="M0 0 C2 1 2 1 2 1 Z " fill="#00FFFF" transform="translate(394,183)"/>
<path d="M0 0 C2 1 2 1 2 1 Z " fill="#00FFFF" transform="translate(227,176)"/>
<path d="" fill="#00FFFF" transform="translate(0,0)"/>
<path d="M0 0 C2 1 2 1 2 1 Z " fill="#00BFFF" transform="translate(254,157)"/>
<path d="M0 0 C2 1 2 1 2 1 Z " fill="#00FFFF" transform="translate(257,155)"/>
<path d="M0 0 C2 1 2 1 2 1 Z " fill="#00BFFF" transform="translate(656,144)"/>
<path d="" fill="#00FFFF" transform="translate(0,0)"/>
<path d="M0 0 C2 1 2 1 2 1 Z " fill="#0080FF" transform="translate(432,139)"/>
<path d="M0 0 C2 1 2 1 2 1 Z " fill="#198CE5" transform="translate(347,112)"/>
<path d="" fill="#55AAAA" transform="translate(0,0)"/>
<path d="" fill="#00FFFF" transform="translate(0,0)"/>
<path d="" fill="#0080FF" transform="translate(0,0)"/>
<path d="" fill="#55AAAA" transform="translate(0,0)"/>
<path d="" fill="#00FFFF" transform="translate(0,0)"/>
<path d="" fill="#00FFFF" transform="translate(0,0)"/>
<path d="" fill="#0080FF" transform="translate(0,0)"/>
<path d="" fill="#00FFFF" transform="translate(0,0)"/>
<path d="" fill="#00FFFF" transform="translate(0,0)"/>
<path d="" fill="#00FFFF" transform="translate(0,0)"/>
<path d="" fill="#00FFFF" transform="translate(0,0)"/>
<path d="" fill="#0080FF" transform="translate(0,0)"/>
<path d="" fill="#00FFFF" transform="translate(0,0)"/>
<path d="" fill="#00FFFF" transform="translate(0,0)"/>
<path d="" fill="#00FFFF" transform="translate(0,0)"/>
<path d="" fill="#00FFFF" transform="translate(0,0)"/>
<path d="" fill="#00FFFF" transform="translate(0,0)"/>
<path d="" fill="#00FFFF" transform="translate(0,0)"/>
<path d="" fill="#40BFBF" transform="translate(0,0)"/>
<path d="" fill="#0080FF" transform="translate(0,0)"/>
<path d="" fill="#00FFFF" transform="translate(0,0)"/>
<path d="" fill="#0080FF" transform="translate(0,0)"/>
<path d="" fill="#00FFFF" transform="translate(0,0)"/>
<path d="" fill="#00FFFF" transform="translate(0,0)"/>
<path d="" fill="#55AAAA" transform="translate(0,0)"/>
<path d="" fill="#00FFFF" transform="translate(0,0)"/>
<path d="" fill="#00FFFF" transform="translate(0,0)"/>
<path d="" fill="#40BFBF" transform="translate(0,0)"/>
<path d="" fill="#40BFBF" transform="translate(0,0)"/>
<path d="" fill="#00FFFF" transform="translate(0,0)"/>
<path d="" fill="#00FFFF" transform="translate(0,0)"/>
<path d="" fill="#00FFFF" transform="translate(0,0)"/>
<path d="" fill="#0080FF" transform="translate(0,0)"/>
<path d="" fill="#00FFFF" transform="translate(0,0)"/>
<path d="" fill="#00FFFF" transform="translate(0,0)"/>
<path d="" fill="#00FFFF" transform="translate(0,0)"/>
<path d="" fill="#00FFFF" transform="translate(0,0)"/>
<path d="" fill="#55AAFF" transform="translate(0,0)"/>
<path d="" fill="#00FFFF" transform="translate(0,0)"/>
<path d="" fill="#00FFFF" transform="translate(0,0)"/>
<path d="" fill="#00FFFF" transform="translate(0,0)"/>
<path d="" fill="#00FFFF" transform="translate(0,0)"/>
<path d="" fill="#2AAAD4" transform="translate(0,0)"/>
<path d="" fill="#0080FF" transform="translate(0,0)"/>
<path d="" fill="#0080FF" transform="translate(0,0)"/>
<path d="" fill="#00FFFF" transform="translate(0,0)"/>
<path d="" fill="#00FFFF" transform="translate(0,0)"/>
<path d="" fill="#55AAAA" transform="translate(0,0)"/>
<path d="" fill="#0080FF" transform="translate(0,0)"/>
<path d="" fill="#00FFFF" transform="translate(0,0)"/>
<path d="" fill="#0080FF" transform="translate(0,0)"/>
<path d="" fill="#00FFFF" transform="translate(0,0)"/>
<path d="" fill="#0080FF" transform="translate(0,0)"/>
<path d="" fill="#00FFFF" transform="translate(0,0)"/>
<path d="" fill="#55AAAA" transform="translate(0,0)"/>
<path d="" fill="#0080FF" transform="translate(0,0)"/>
<path d="" fill="#00FFFF" transform="translate(0,0)"/>
<path d="" fill="#0080FF" transform="translate(0,0)"/>
<path d="" fill="#00FFFF" transform="translate(0,0)"/>
<path d="" fill="#0080FF" transform="translate(0,0)"/>
<path d="" fill="#0080FF" transform="translate(0,0)"/>
<path d="" fill="#00FFFF" transform="translate(0,0)"/>
<path d="" fill="#0080FF" transform="translate(0,0)"/>
<path d="" fill="#00FFFF" transform="translate(0,0)"/>
<path d="" fill="#0080FF" transform="translate(0,0)"/>
<path d="" fill="#0080FF" transform="translate(0,0)"/>
<path d="" fill="#0080FF" transform="translate(0,0)"/>
<path d="" fill="#0080FF" transform="translate(0,0)"/>
<path d="" fill="#0080FF" transform="translate(0,0)"/>
<path d="" fill="#0080FF" transform="translate(0,0)"/>
<path d="" fill="#0080FF" transform="translate(0,0)"/>
<path d="" fill="#00FFFF" transform="translate(0,0)"/>
<path d="" fill="#00FFFF" transform="translate(0,0)"/>
<path d="" fill="#55AAAA" transform="translate(0,0)"/>
<path d="" fill="#00FFFF" transform="translate(0,0)"/>
<path d="" fill="#0080FF" transform="translate(0,0)"/>
<path d="" fill="#00FFFF" transform="translate(0,0)"/>
<path d="" fill="#00FFFF" transform="translate(0,0)"/>
<path d="" fill="#00FFFF" transform="translate(0,0)"/>
<path d="" fill="#00FFFF" transform="translate(0,0)"/>
<path d="" fill="#00FFFF" transform="translate(0,0)"/>
<path d="" fill="#0080FF" transform="translate(0,0)"/>
<path d="" fill="#00FFFF" transform="translate(0,0)"/>
<path d="" fill="#00FFFF" transform="translate(0,0)"/>
<path d="" fill="#0080FF" transform="translate(0,0)"/>
<path d="" fill="#00FFFF" transform="translate(0,0)"/>
<path d="" fill="#00FFFF" transform="translate(0,0)"/>
<path d="" fill="#00FFFF" transform="translate(0,0)"/>
<path d="" fill="#00FFFF" transform="translate(0,0)"/>
<path d="" fill="#00FFFF" transform="translate(0,0)"/>
<path d="" fill="#55AAFF" transform="translate(0,0)"/>
<path d="" fill="#0080FF" transform="translate(0,0)"/>
<path d="" fill="#00FFFF" transform="translate(0,0)"/>
<path d="" fill="#00FFFF" transform="translate(0,0)"/>
<path d="" fill="#0080FF" transform="translate(0,0)"/>
<path d="" fill="#0080FF" transform="translate(0,0)"/>
<path d="" fill="#00FFFF" transform="translate(0,0)"/>
<path d="" fill="#0080FF" transform="translate(0,0)"/>
<path d="" fill="#00FFFF" transform="translate(0,0)"/>
<path d="" fill="#55AAFF" transform="translate(0,0)"/>
<path d="" fill="#00FFFF" transform="translate(0,0)"/>
<path d="" fill="#00FFFF" transform="translate(0,0)"/>
<path d="" fill="#00FFFF" transform="translate(0,0)"/>
<path d="" fill="#00FFFF" transform="translate(0,0)"/>
<path d="" fill="#0080FF" transform="translate(0,0)"/>
<path d="" fill="#00FFFF" transform="translate(0,0)"/>
<path d="" fill="#00FFFF" transform="translate(0,0)"/>
<path d="" fill="#00FFFF" transform="translate(0,0)"/>
<path d="" fill="#00FFFF" transform="translate(0,0)"/>
<path d="" fill="#00FFFF" transform="translate(0,0)"/>
<path d="" fill="#00FFFF" transform="translate(0,0)"/>
<path d="" fill="#00FFFF" transform="translate(0,0)"/>
<path d="" fill="#00FFFF" transform="translate(0,0)"/>
<path d="" fill="#00FFFF" transform="translate(0,0)"/>
<path d="" fill="#00FFFF" transform="translate(0,0)"/>
<path d="" fill="#40BFFF" transform="translate(0,0)"/>
<path d="" fill="#00FFFF" transform="translate(0,0)"/>
<path d="" fill="#00FFFF" transform="translate(0,0)"/>
<path d="" fill="#00FFFF" transform="translate(0,0)"/>
<path d="" fill="#00FFFF" transform="translate(0,0)"/>
<path d="" fill="#00FFFF" transform="translate(0,0)"/>
<path d="" fill="#0080FF" transform="translate(0,0)"/>
<path d="" fill="#0080FF" transform="translate(0,0)"/>
<path d="" fill="#00FFFF" transform="translate(0,0)"/>
<path d="" fill="#0080FF" transform="translate(0,0)"/>
<path d="" fill="#00FFFF" transform="translate(0,0)"/>
<path d="" fill="#00FFFF" transform="translate(0,0)"/>
<path d="" fill="#00FFFF" transform="translate(0,0)"/>
<path d="" fill="#00FFFF" transform="translate(0,0)"/>
<path d="" fill="#00FFFF" transform="translate(0,0)"/>
<path d="" fill="#55AAFF" transform="translate(0,0)"/>
<path d="" fill="#00FFFF" transform="translate(0,0)"/>
<path d="" fill="#00FFFF" transform="translate(0,0)"/>
<path d="" fill="#0080FF" transform="translate(0,0)"/>
<path d="" fill="#0080FF" transform="translate(0,0)"/>
<path d="" fill="#55AAFF" transform="translate(0,0)"/>
<path d="" fill="#00FFFF" transform="translate(0,0)"/>
<path d="" fill="#00FFFF" transform="translate(0,0)"/>
<path d="" fill="#00FFFF" transform="translate(0,0)"/>
<path d="" fill="#55AAFF" transform="translate(0,0)"/>
<path d="" fill="#0080FF" transform="translate(0,0)"/>
<path d="" fill="#2AAAD4" transform="translate(0,0)"/>
<path d="" fill="#00FFFF" transform="translate(0,0)"/>
<path d="" fill="#00FFFF" transform="translate(0,0)"/>
<path d="" fill="#00FFFF" transform="translate(0,0)"/>
<path d="" fill="#0080FF" transform="translate(0,0)"/>
<path d="" fill="#00FFFF" transform="translate(0,0)"/>
<path d="" fill="#00FFFF" transform="translate(0,0)"/>
<path d="" fill="#00FFFF" transform="translate(0,0)"/>
<path d="" fill="#00FFFF" transform="translate(0,0)"/>
<path d="" fill="#00FFFF" transform="translate(0,0)"/>
<path d="" fill="#00FFFF" transform="translate(0,0)"/>
<path d="" fill="#00FFFF" transform="translate(0,0)"/>
<path d="" fill="#00FFFF" transform="translate(0,0)"/>
<path d="" fill="#00FFFF" transform="translate(0,0)"/>
<path d="" fill="#33CCCC" transform="translate(0,0)"/>
<path d="" fill="#00FFFF" transform="translate(0,0)"/>
<path d="" fill="#00FFFF" transform="translate(0,0)"/>
<path d="" fill="#00FFFF" transform="translate(0,0)"/>
<path d="" fill="#00FFFF" transform="translate(0,0)"/>
<path d="" fill="#00FFFF" transform="translate(0,0)"/>
<path d="" fill="#00FFFF" transform="translate(0,0)"/>
<path d="" fill="#0080FF" transform="translate(0,0)"/>
<path d="" fill="#00FFFF" transform="translate(0,0)"/>
<path d="" fill="#00FFFF" transform="translate(0,0)"/>
<path d="" fill="#40BFFF" transform="translate(0,0)"/>
<path d="" fill="#00FFFF" transform="translate(0,0)"/>
<path d="" fill="#2AAAD4" transform="translate(0,0)"/>
<path d="" fill="#0080FF" transform="translate(0,0)"/>
<path d="" fill="#00FFFF" transform="translate(0,0)"/>
<path d="" fill="#00FFFF" transform="translate(0,0)"/>
<path d="" fill="#00FFFF" transform="translate(0,0)"/>
<path d="" fill="#0080FF" transform="translate(0,0)"/>
<path d="" fill="#00FFFF" transform="translate(0,0)"/>
<path d="" fill="#0080FF" transform="translate(0,0)"/>
<path d="" fill="#00FFFF" transform="translate(0,0)"/>
<path d="" fill="#0080FF" transform="translate(0,0)"/>
<path d="" fill="#0080FF" transform="translate(0,0)"/>
<path d="" fill="#0080FF" transform="translate(0,0)"/>
<path d="" fill="#0080FF" transform="translate(0,0)"/>
<path d="" fill="#40BFFF" transform="translate(0,0)"/>
<path d="" fill="#00FFFF" transform="translate(0,0)"/>
<path d="" fill="#00FFFF" transform="translate(0,0)"/>
<path d="" fill="#2AAAD4" transform="translate(0,0)"/>
<path d="" fill="#0080FF" transform="translate(0,0)"/>
<path d="" fill="#55AAFF" transform="translate(0,0)"/>
<path d="" fill="#0080FF" transform="translate(0,0)"/>
<path d="" fill="#00FFFF" transform="translate(0,0)"/>
<path d="" fill="#00FFFF" transform="translate(0,0)"/>
<path d="" fill="#0080FF" transform="translate(0,0)"/>
<path d="" fill="#00FFFF" transform="translate(0,0)"/>
<path d="" fill="#00FFFF" transform="translate(0,0)"/>
<path d="" fill="#00FFFF" transform="translate(0,0)"/>
<path d="" fill="#55AAFF" transform="translate(0,0)"/>
<path d="" fill="#33CCFF" transform="translate(0,0)"/>
<path d="" fill="#00FFFF" transform="translate(0,0)"/>
<path d="" fill="#33CCCC" transform="translate(0,0)"/>
<path d="" fill="#00FFFF" transform="translate(0,0)"/>
<path d="" fill="#00FFFF" transform="translate(0,0)"/>
<path d="" fill="#00FFFF" transform="translate(0,0)"/>
<path d="" fill="#00FFFF" transform="translate(0,0)"/>
<path d="" fill="#00FFFF" transform="translate(0,0)"/>
<path d="" fill="#00FFFF" transform="translate(0,0)"/>
<path d="" fill="#00FFFF" transform="translate(0,0)"/>
<path d="" fill="#00FFFF" transform="translate(0,0)"/>
<path d="" fill="#0080FF" transform="translate(0,0)"/>
<path d="" fill="#0080FF" transform="translate(0,0)"/>
<path d="" fill="#00FFFF" transform="translate(0,0)"/>
<path d="" fill="#00FFFF" transform="translate(0,0)"/>
<path d="" fill="#0080FF" transform="translate(0,0)"/>
<path d="" fill="#00FFFF" transform="translate(0,0)"/>
<path d="" fill="#00FFFF" transform="translate(0,0)"/>
<path d="" fill="#0080FF" transform="translate(0,0)"/>
<path d="" fill="#0080FF" transform="translate(0,0)"/>
<path d="" fill="#0080FF" transform="translate(0,0)"/>
<path d="" fill="#55AAFF" transform="translate(0,0)"/>
<path d="" fill="#00FFFF" transform="translate(0,0)"/>
<path d="" fill="#55AAFF" transform="translate(0,0)"/>
<path d="" fill="#00FFFF" transform="translate(0,0)"/>
<path d="" fill="#00FFFF" transform="translate(0,0)"/>
<path d="" fill="#00FFFF" transform="translate(0,0)"/>
<path d="" fill="#00FFFF" transform="translate(0,0)"/>
<path d="" fill="#55AAFF" transform="translate(0,0)"/>
<path d="" fill="#00FFFF" transform="translate(0,0)"/>
<path d="" fill="#00FFFF" transform="translate(0,0)"/>
<path d="" fill="#0080FF" transform="translate(0,0)"/>
<path d="" fill="#00FFFF" transform="translate(0,0)"/>
<path d="" fill="#00FFFF" transform="translate(0,0)"/>
<path d="" fill="#00FFFF" transform="translate(0,0)"/>
<path d="" fill="#00FFFF" transform="translate(0,0)"/>
<path d="" fill="#00FFFF" transform="translate(0,0)"/>
<path d="" fill="#00FFFF" transform="translate(0,0)"/>
<path d="" fill="#00FFFF" transform="translate(0,0)"/>
<path d="" fill="#00FFFF" transform="translate(0,0)"/>
<path d="" fill="#00FFFF" transform="translate(0,0)"/>
<path d="" fill="#0080FF" transform="translate(0,0)"/>
<path d="" fill="#00FFFF" transform="translate(0,0)"/>
<path d="" fill="#0080FF" transform="translate(0,0)"/>
<path d="" fill="#00FFFF" transform="translate(0,0)"/>
<path d="" fill="#0080FF" transform="translate(0,0)"/>
<path d="" fill="#00FFFF" transform="translate(0,0)"/>
<path d="" fill="#00FFFF" transform="translate(0,0)"/>
<path d="" fill="#40BFFF" transform="translate(0,0)"/>
<path d="" fill="#00FFFF" transform="translate(0,0)"/>
<path d="" fill="#00FFFF" transform="translate(0,0)"/>
<path d="" fill="#00FFFF" transform="translate(0,0)"/>
<path d="" fill="#00FFFF" transform="translate(0,0)"/>
<path d="" fill="#0080FF" transform="translate(0,0)"/>
<path d="" fill="#00FFFF" transform="translate(0,0)"/>
<path d="" fill="#00FFFF" transform="translate(0,0)"/>
<path d="" fill="#00FFFF" transform="translate(0,0)"/>
<path d="" fill="#00FFFF" transform="translate(0,0)"/>
<path d="" fill="#0080FF" transform="translate(0,0)"/>
<path d="" fill="#00FFFF" transform="translate(0,0)"/>
<path d="" fill="#00FFFF" transform="translate(0,0)"/>
<path d="" fill="#00FFFF" transform="translate(0,0)"/>
<path d="" fill="#00FFFF" transform="translate(0,0)"/>
<path d="" fill="#00FFFF" transform="translate(0,0)"/>
<path d="" fill="#55AAFF" transform="translate(0,0)"/>
<path d="" fill="#0080FF" transform="translate(0,0)"/>
<path d="" fill="#00FFFF" transform="translate(0,0)"/>
<path d="" fill="#00FFFF" transform="translate(0,0)"/>
<path d="" fill="#0080FF" transform="translate(0,0)"/>
<path d="" fill="#2AAAD4" transform="translate(0,0)"/>
<path d="" fill="#55AAFF" transform="translate(0,0)"/>
<path d="" fill="#00FFFF" transform="translate(0,0)"/>
<path d="" fill="#00FFFF" transform="translate(0,0)"/>
<path d="" fill="#00FFFF" transform="translate(0,0)"/>
<path d="" fill="#00FFFF" transform="translate(0,0)"/>
<path d="" fill="#00FFFF" transform="translate(0,0)"/>
<path d="" fill="#00FFFF" transform="translate(0,0)"/>
<path d="" fill="#00FFFF" transform="translate(0,0)"/>
<path d="" fill="#00FFFF" transform="translate(0,0)"/>
<path d="" fill="#00FFFF" transform="translate(0,0)"/>
<path d="" fill="#00FFFF" transform="translate(0,0)"/>
<path d="" fill="#00FFFF" transform="translate(0,0)"/>
<path d="" fill="#00FFFF" transform="translate(0,0)"/>
<path d="" fill="#00FFFF" transform="translate(0,0)"/>
<path d="" fill="#55AAFF" transform="translate(0,0)"/>
<path d="" fill="#00FFFF" transform="translate(0,0)"/>
<path d="" fill="#00FFFF" transform="translate(0,0)"/>
<path d="" fill="#40BFFF" transform="translate(0,0)"/>
<path d="" fill="#00FFFF" transform="translate(0,0)"/>
<path d="" fill="#00FFFF" transform="translate(0,0)"/>
<path d="" fill="#00FFFF" transform="translate(0,0)"/>
<path d="" fill="#40BFFF" transform="translate(0,0)"/>
<path d="" fill="#00FFFF" transform="translate(0,0)"/>
<path d="" fill="#00FFFF" transform="translate(0,0)"/>
<path d="" fill="#00FFFF" transform="translate(0,0)"/>
<path d="" fill="#0080FF" transform="translate(0,0)"/>
<path d="" fill="#00FFFF" transform="translate(0,0)"/>
<path d="" fill="#55AAFF" transform="translate(0,0)"/>
<path d="" fill="#00FFFF" transform="translate(0,0)"/>
<path d="" fill="#00FFFF" transform="translate(0,0)"/>
<path d="" fill="#0080FF" transform="translate(0,0)"/>
<path d="" fill="#40BFFF" transform="translate(0,0)"/>
<path d="" fill="#00FFFF" transform="translate(0,0)"/>
<path d="" fill="#00FFFF" transform="translate(0,0)"/>
<path d="" fill="#00FFFF" transform="translate(0,0)"/>
<path d="" fill="#00FFFF" transform="translate(0,0)"/>
<path d="" fill="#00FFFF" transform="translate(0,0)"/>
<path d="" fill="#00FFFF" transform="translate(0,0)"/>
<path d="" fill="#00FFFF" transform="translate(0,0)"/>
<path d="" fill="#0080FF" transform="translate(0,0)"/>
<path d="" fill="#00FFFF" transform="translate(0,0)"/>
<path d="" fill="#55AAFF" transform="translate(0,0)"/>
<path d="" fill="#00FFFF" transform="translate(0,0)"/>
<path d="" fill="#0080FF" transform="translate(0,0)"/>
<path d="" fill="#00FFFF" transform="translate(0,0)"/>
<path d="" fill="#00FFFF" transform="translate(0,0)"/>
<path d="" fill="#0080FF" transform="translate(0,0)"/>
<path d="" fill="#00FFFF" transform="translate(0,0)"/>
<path d="" fill="#00FFFF" transform="translate(0,0)"/>
<path d="" fill="#00FFFF" transform="translate(0,0)"/>
<path d="" fill="#00FFFF" transform="translate(0,0)"/>
<path d="" fill="#00FFFF" transform="translate(0,0)"/>
<path d="" fill="#00FFFF" transform="translate(0,0)"/>
<path d="" fill="#00FFFF" transform="translate(0,0)"/>
<path d="" fill="#00FFFF" transform="translate(0,0)"/>
<path d="" fill="#0080FF" transform="translate(0,0)"/>
<path d="" fill="#40BFFF" transform="translate(0,0)"/>
<path d="" fill="#00FFFF" transform="translate(0,0)"/>
<path d="" fill="#0080FF" transform="translate(0,0)"/>
<path d="" fill="#00FFFF" transform="translate(0,0)"/>
<path d="" fill="#00FFFF" transform="translate(0,0)"/>
<path d="" fill="#40BFFF" transform="translate(0,0)"/>
<path d="" fill="#0080FF" transform="translate(0,0)"/>
<path d="" fill="#00FFFF" transform="translate(0,0)"/>
<path d="" fill="#00FFFF" transform="translate(0,0)"/>
<path d="" fill="#00FFFF" transform="translate(0,0)"/>
<path d="" fill="#00FFFF" transform="translate(0,0)"/>
<path d="" fill="#00FFFF" transform="translate(0,0)"/>
<path d="" fill="#0080FF" transform="translate(0,0)"/>
<path d="" fill="#40BFBF" transform="translate(0,0)"/>
<path d="" fill="#00FFFF" transform="translate(0,0)"/>
<path d="" fill="#0080FF" transform="translate(0,0)"/>
<path d="" fill="#00FFFF" transform="translate(0,0)"/>
<path d="" fill="#00FFFF" transform="translate(0,0)"/>
<path d="" fill="#00FFFF" transform="translate(0,0)"/>
<path d="" fill="#0080FF" transform="translate(0,0)"/>
<path d="" fill="#00FFFF" transform="translate(0,0)"/>
<path d="" fill="#00FFFF" transform="translate(0,0)"/>
<path d="" fill="#40BFFF" transform="translate(0,0)"/>
<path d="" fill="#00FFFF" transform="translate(0,0)"/>
<path d="" fill="#00FFFF" transform="translate(0,0)"/>
<path d="" fill="#0080FF" transform="translate(0,0)"/>
<path d="" fill="#00FFFF" transform="translate(0,0)"/>
<path d="" fill="#0080FF" transform="translate(0,0)"/>
<path d="" fill="#0080FF" transform="translate(0,0)"/>
<path d="" fill="#00FFFF" transform="translate(0,0)"/>
<path d="" fill="#33CCCC" transform="translate(0,0)"/>
<path d="" fill="#0080FF" transform="translate(0,0)"/>
<path d="" fill="#0080FF" transform="translate(0,0)"/>
<path d="" fill="#00FFFF" transform="translate(0,0)"/>
<path d="" fill="#0080FF" transform="translate(0,0)"/>
<path d="" fill="#0080FF" transform="translate(0,0)"/>
<path d="" fill="#00FFFF" transform="translate(0,0)"/>
<path d="" fill="#0080FF" transform="translate(0,0)"/>
<path d="" fill="#00FFFF" transform="translate(0,0)"/>
<path d="" fill="#00FFFF" transform="translate(0,0)"/>
<path d="" fill="#00FFFF" transform="translate(0,0)"/>
<path d="" fill="#00FFFF" transform="translate(0,0)"/>
<path d="" fill="#00FFFF" transform="translate(0,0)"/>
<path d="" fill="#00FFFF" transform="translate(0,0)"/>
<path d="" fill="#00FFFF" transform="translate(0,0)"/>
<path d="" fill="#00FFFF" transform="translate(0,0)"/>
<path d="" fill="#00FFFF" transform="translate(0,0)"/>
<path d="" fill="#00FFFF" transform="translate(0,0)"/>
<path d="" fill="#00FFFF" transform="translate(0,0)"/>
<path d="" fill="#00FFFF" transform="translate(0,0)"/>
<path d="" fill="#00FFFF" transform="translate(0,0)"/>
<path d="" fill="#55AAFF" transform="translate(0,0)"/>
<path d="" fill="#00FFFF" transform="translate(0,0)"/>
<path d="" fill="#00FFFF" transform="translate(0,0)"/>
<path d="" fill="#0080FF" transform="translate(0,0)"/>
<path d="" fill="#00FFFF" transform="translate(0,0)"/>
<path d="" fill="#55AAFF" transform="translate(0,0)"/>
<path d="" fill="#00FFFF" transform="translate(0,0)"/>
<path d="" fill="#40BFFF" transform="translate(0,0)"/>
<path d="" fill="#00FFFF" transform="translate(0,0)"/>
<path d="" fill="#00FFFF" transform="translate(0,0)"/>
<path d="" fill="#0080FF" transform="translate(0,0)"/>
<path d="" fill="#00FFFF" transform="translate(0,0)"/>
<path d="" fill="#00FFFF" transform="translate(0,0)"/>
<path d="" fill="#0080FF" transform="translate(0,0)"/>
<path d="" fill="#00FFFF" transform="translate(0,0)"/>
<path d="" fill="#55AAFF" transform="translate(0,0)"/>
<path d="" fill="#00FFFF" transform="translate(0,0)"/>
<path d="" fill="#0080FF" transform="translate(0,0)"/>
<path d="" fill="#00FFFF" transform="translate(0,0)"/>
<path d="" fill="#00FFFF" transform="translate(0,0)"/>
<path d="" fill="#0080FF" transform="translate(0,0)"/>
<path d="" fill="#00FFFF" transform="translate(0,0)"/>
<path d="" fill="#00FFFF" transform="translate(0,0)"/>
<path d="" fill="#0080FF" transform="translate(0,0)"/>
<path d="" fill="#0080FF" transform="translate(0,0)"/>
<path d="" fill="#00FFFF" transform="translate(0,0)"/>
<path d="" fill="#00FFFF" transform="translate(0,0)"/>
<path d="" fill="#55AAFF" transform="translate(0,0)"/>
<path d="" fill="#00FFFF" transform="translate(0,0)"/>
<path d="" fill="#00FFFF" transform="translate(0,0)"/>
<path d="" fill="#00FFFF" transform="translate(0,0)"/>
<path d="" fill="#00FFFF" transform="translate(0,0)"/>
<path d="" fill="#00FFFF" transform="translate(0,0)"/>
<path d="" fill="#0080FF" transform="translate(0,0)"/>
<path d="" fill="#00FFFF" transform="translate(0,0)"/>
<path d="" fill="#0080FF" transform="translate(0,0)"/>
<path d="" fill="#0080FF" transform="translate(0,0)"/>
<path d="" fill="#00FFFF" transform="translate(0,0)"/>
<path d="" fill="#55AAFF" transform="translate(0,0)"/>
<path d="" fill="#40BFFF" transform="translate(0,0)"/>
<path d="" fill="#0080FF" transform="translate(0,0)"/>
<path d="" fill="#00FFFF" transform="translate(0,0)"/>
<path d="" fill="#0080FF" transform="translate(0,0)"/>
<path d="" fill="#00FFFF" transform="translate(0,0)"/>
<path d="" fill="#00FFFF" transform="translate(0,0)"/>
<path d="" fill="#0080FF" transform="translate(0,0)"/>
<path d="" fill="#55AAFF" transform="translate(0,0)"/>
<path d="" fill="#0080FF" transform="translate(0,0)"/>
<path d="" fill="#0080FF" transform="translate(0,0)"/>
<path d="" fill="#00FFFF" transform="translate(0,0)"/>
<path d="" fill="#00FFFF" transform="translate(0,0)"/>
<path d="" fill="#00FFFF" transform="translate(0,0)"/>
<path d="" fill="#00FFFF" transform="translate(0,0)"/>
<path d="" fill="#55AAAA" transform="translate(0,0)"/>
<path d="" fill="#00FFFF" transform="translate(0,0)"/>
<path d="" fill="#55AAFF" transform="translate(0,0)"/>
<path d="" fill="#55AAAA" transform="translate(0,0)"/>
<path d="" fill="#0080FF" transform="translate(0,0)"/>
<path d="" fill="#0080FF" transform="translate(0,0)"/>
<path d="" fill="#00FFFF" transform="translate(0,0)"/>
<path d="" fill="#0080FF" transform="translate(0,0)"/>
<path d="" fill="#00FFFF" transform="translate(0,0)"/>
<path d="" fill="#00FFFF" transform="translate(0,0)"/>
<path d="" fill="#00FFFF" transform="translate(0,0)"/>
<path d="" fill="#0080FF" transform="translate(0,0)"/>
<path d="" fill="#0080FF" transform="translate(0,0)"/>
<path d="" fill="#00FFFF" transform="translate(0,0)"/>
<path d="" fill="#00FFFF" transform="translate(0,0)"/>
<path d="" fill="#00FFFF" transform="translate(0,0)"/>
<path d="" fill="#0080FF" transform="translate(0,0)"/>
<path d="" fill="#00FFFF" transform="translate(0,0)"/>
<path d="" fill="#0080FF" transform="translate(0,0)"/>
<path d="" fill="#00FFFF" transform="translate(0,0)"/>
<path d="" fill="#00FFFF" transform="translate(0,0)"/>
<path d="" fill="#00FFFF" transform="translate(0,0)"/>
</svg>
